<svg width="114" height="70" viewBox="0 0 114 70" fill="none" xmlns="http://www.w3.org/2000/svg">
<path d="M68.4942 47.603V27.754C68.4942 26.9547 67.9614 26.4219 67.1621 26.4219C66.3628 26.4219 65.8299 26.9547 65.8299 27.754V47.603C65.8299 48.4023 66.3628 48.9352 67.1621 48.9352C67.9614 48.9352 68.4942 48.4023 68.4942 47.603ZM63.1656 47.3366V28.0204C63.1656 25.6559 64.7975 24.024 67.1621 24.024C69.5266 24.024 71.1585 25.6559 71.1585 28.0204V47.3366C71.1585 49.7012 69.5266 51.333 67.1621 51.333C64.7975 51.333 63.1656 49.7012 63.1656 47.3366ZM74.6411 51V24.357H78.6375C81.0021 24.357 82.634 25.9889 82.634 28.3535V33.8153C82.634 35.7136 81.6016 37.1124 79.9697 37.6119V37.7451C81.6016 38.2447 82.634 39.6434 82.634 41.5417V51H79.9697V40.2096C79.9697 39.4103 79.4368 38.8775 78.6375 38.8775H77.3054V51H74.6411ZM77.3054 36.4796H78.6375C79.4368 36.4796 79.9697 35.9467 79.9697 35.1474V28.0871C79.9697 27.2878 79.4368 26.7549 78.6375 26.7549H77.3054V36.4796ZM91.1121 35.5138V27.754C91.1121 26.9547 90.5793 26.4219 89.78 26.4219C88.9807 26.4219 88.4478 26.9547 88.4478 27.754V47.603C88.4478 48.4023 88.9807 48.9352 89.78 48.9352C90.5793 48.9352 91.1121 48.4023 91.1121 47.603V39.8433H93.7764V47.3366C93.7764 49.7012 92.1445 51.333 89.78 51.333C87.4154 51.333 85.7835 49.7012 85.7835 47.3366V28.0204C85.7835 25.6559 87.4154 24.024 89.78 24.024C92.1445 24.024 93.7764 25.6559 93.7764 28.0204V35.5138H91.1121ZM98.2659 51V26.7549H95.9346V24.357H103.261V26.7549H100.93V51H98.2659ZM104.284 51L106.848 24.357H110.578L113.143 51H110.478L109.912 43.873H107.514L106.948 51H104.284ZM107.714 41.4751H109.712C108.98 31.7505 108.813 27.421 108.813 26.7549H108.613C108.613 27.421 108.447 31.7505 107.714 41.4751Z" fill="black"/>
<g clip-path="url(#clip0_5_1908)">
<path d="M29.9926 62.2013C28.5796 61.1042 28.1073 59.0388 28.0478 58.1432C25.9685 57.6612 22.4808 56.7082 25.1637 56.7531C28.5174 56.8093 31.9084 54.6297 34.1442 54.6671C35.9328 54.697 37.7014 55.9194 38.3622 56.5268C37.7672 56.4423 36.3537 56.2696 35.4594 56.2546C34.5651 56.2396 33.2832 57.1127 32.7541 57.5511C33.5714 57.7139 35.6456 58.4941 37.4042 60.3126C39.6026 62.5858 41.5099 68.8796 40.4295 66.6251C39.349 64.3707 33.3836 60.0217 34.2667 60.7074C35.1498 61.3931 36.8223 68.3539 35.7419 66.0994C34.6614 63.8449 30.697 60.2003 31.1292 61.1021L32.6418 64.2584L29.9926 62.2013Z" fill="#1E2316"/>
<path d="M21.4528 51.3237C22.1892 50.0836 20.8953 49.0034 20.1563 48.6183L26.9197 45.377C27.0513 46.4228 26.7659 49.221 24.5716 52.0468C21.8288 55.5791 24.0459 56.7344 26.9486 57.0066C29.2708 57.2244 33.0297 58.8976 34.5015 60.0404C33.1738 59.1981 30.9505 58.4155 27.813 58.8102C24.3403 59.2471 21.1057 58.6979 20.0253 56.4435C19.0589 54.427 20.5323 52.8737 21.4528 51.3237Z" fill="#1E2316"/>
<circle cx="34.5" cy="32.5" r="22.5" fill="#D0F04F"/>
<mask id="mask0_5_1908" style="mask-type:alpha" maskUnits="userSpaceOnUse" x="12" y="14" width="40" height="40">
<path fill-rule="evenodd" clip-rule="evenodd" d="M52 34C52 45.0457 43.0457 54 32 54C20.9543 54 12 45.0457 12 34C12 22.9543 20.9543 14 32 14C43.0457 14 52 22.9543 52 34ZM43.9994 42.0765C42.4041 48.14 33.9226 51.1641 25.0554 48.8311C16.1883 46.4981 10.9047 38.5634 12.5 32.5L12.6951 32.059C14.5829 27.788 17.883 20.322 21 19.5C22.5 22 24.5 25 31 28.5C31.2927 28.6576 31.5885 28.8162 31.8866 28.976L31.8873 28.9764C38.2098 32.3658 45.5229 36.2863 43.9994 42.0765ZM45.0893 33.0728C45.3771 33.3687 45.6759 33.6759 46 34C49.5 26.5 47.58 18.1995 39.649 16.382C31.7179 14.5645 24.7263 15.5447 24.0327 18.5715C23.4853 20.9602 27.8299 22.9596 32.6352 25.171C33.9187 25.7617 35.2352 26.3676 36.5 27C41.7223 29.6111 43.1568 31.0859 45.0893 33.0728Z" fill="#D9D9D9"/>
</mask>
<g mask="url(#mask0_5_1908)">
<ellipse cx="33.3135" cy="21.8212" rx="13.0238" ry="7.58158" transform="rotate(8.1183 33.3135 21.8212)" fill="#1E2316"/>
<ellipse cx="33.3136" cy="21.8212" rx="13.0238" ry="7.58158" transform="rotate(8.1183 33.3136 21.8212)" fill="#1E2316"/>
<ellipse cx="30.6519" cy="40.6963" rx="17.5453" ry="14.5863" transform="rotate(9.2015 30.6519 40.6963)" fill="#1E2316"/>
</g>
<path d="M17.9709 19.8833C17.9709 19.8833 19.7638 18.8277 20.7359 18.4609C21.708 18.0941 22.3791 18 22.3791 18L21.6568 19.8833C21.6568 19.8833 20.7218 19.6573 20.3075 19.6573C19.8932 19.6573 17.9709 19.8833 17.9709 19.8833Z" fill="#1E2316"/>
<path d="M18.3031 22.1791C18.3031 22.1791 19.6938 20.6316 20.5098 19.9885C21.3258 19.3454 21.9372 19.053 21.9372 19.053L21.8171 21.0665C21.8171 21.0665 20.8575 21.1332 20.4625 21.2583C20.0675 21.3834 18.3031 22.1791 18.3031 22.1791Z" fill="#1E2316"/>
<path d="M18.6503 25.4577C18.6503 25.4577 19.9769 22.9446 20.7218 22.1431C21.4668 21.3417 22 20.5 22 20.5L24.4507 23.5736C24.4507 23.5736 23.2671 23.1734 21.5505 23.5736C19.8339 23.9739 18.6503 25.4577 18.6503 25.4577Z" fill="#1E2316"/>
<path d="M23.9258 23.9658C23.9872 23.8396 23.609 23.1148 23.622 22.9718C23.8212 23.0382 24.4184 23.3165 24.5 23.5C24.6091 23.7454 24.7255 23.9777 24.865 24.2147C24.9382 24.3393 25.1516 24.5614 25.2793 24.629C25.4904 24.7408 26.3057 24.9459 26.5222 25.0434C27.2638 25.3771 27.5042 25.7449 28.2746 25.9922C29.7171 26.4552 31.1747 26.9813 32.333 27.9894C32.6679 28.2809 34.0135 29.3091 33.3316 29.8067C32.9661 30.0735 32.5296 30.2486 32.182 30.5383C31.5901 31.0316 31.046 31.5939 30.4838 32.1204C29.7594 32.7988 29.0383 33.4576 28.1846 33.9726C28.116 34.0139 26.6887 34.8155 26.6663 34.5909C26.6544 34.4725 27.0234 34.1224 27.1133 34.0277C27.5037 33.6168 27.9092 33.1798 28.2049 32.6952C28.6528 31.9612 28.9117 31.3807 28.9117 30.5383C28.9117 29.6982 29.0081 28.7722 29.0081 27.9436C28.9398 27.6362 28.6257 27.204 28.5938 27.1149C28.5485 26.9883 28.1734 26.8819 28.1342 26.8427C28.0101 26.8427 27.8883 26.7963 27.7391 26.7963C27.6157 26.7963 27.5855 26.7752 27.3978 26.8427C26.8843 27.0276 26.4326 27.3291 25.987 27.6411C24.7375 28.5157 23.7236 29.7292 23.0433 31.0899C22.9457 31.285 22.933 31.5163 22.933 31.2002V29.9403C22.933 28.8502 22.9453 27.8158 23.113 26.7382C23.2046 26.1495 23.3014 25.5977 23.5107 25.0342C23.6431 24.6777 23.7593 24.3084 23.9258 23.9658Z" fill="#1E2316"/>
<path d="M33.3508 33.551C33.1481 32.3635 33.2485 31.1054 33.2485 29.9017C33.2485 29.6733 33.2855 29.5217 33.4296 29.4805C33.5813 29.4371 33.799 29.4766 33.9571 29.4766C34.1889 29.4766 34.7328 29.467 34.9491 29.5632C35.4352 29.7792 37.3713 30.8683 36.3348 31.4606C36.0722 31.6107 35.898 32.0128 35.7128 32.2401C35.1732 32.9024 34.7548 33.8215 34.4925 34.6296C34.2578 35.3525 34.0017 37.6046 33.9571 36.8459C33.9453 36.646 33.8484 36.522 33.8114 36.3184C33.745 35.953 33.6113 35.591 33.5477 35.2162C33.4538 34.6635 33.4455 34.1053 33.3508 33.551Z" fill="#1E2316"/>
<path fill-rule="evenodd" clip-rule="evenodd" d="M35 14.3333C35 14.3333 38.0474 14 40 14C40.7038 14 41.5498 14.0433 42.3441 14.0987C43.5645 14.1838 44.5434 15.0311 44.8769 16.1515C45.4332 16.3554 45.8446 16.7471 45.9643 17.2165C46.2664 17.0791 46.6209 17 47 17C47.8724 17 48.6143 17.4189 48.8877 18.0031C48.9248 18.001 48.9623 18 49 18H50C51.1046 18 52 18.8954 52 20C52 20.5523 51.5523 21 51 21H48C47.4477 21 47 20.5523 47 20C46.3717 20 45.8111 19.7827 45.4444 19.4429C44.9861 19.7827 44.2854 20 43.5 20C42.4823 20 41.6066 19.6351 41.2165 19.1115L40.7102 19.1431C40.7602 19.2025 40.8046 19.2694 40.8477 19.3344C40.8713 19.37 40.8946 19.4051 40.9182 19.4381C41.0418 19.6106 41.1637 19.7854 41.2862 19.961L41.2863 19.9612L41.2864 19.9613C41.3927 20.1139 41.4996 20.267 41.6083 20.4198C41.8015 20.6913 42.0325 20.9295 42.2635 21.1677C42.4655 21.376 42.6675 21.5843 42.8442 21.8148C43.0688 22.1079 43.284 22.4082 43.499 22.7081L43.499 22.7082C43.7135 23.0074 43.9277 23.3063 44.1508 23.5974C44.4962 24.0482 45.2428 24.325 45.7968 24.3466C45.9325 24.3519 46.0666 24.3743 46.2018 24.3969C46.3597 24.4233 46.5192 24.4499 46.6848 24.4499C46.9926 24.4499 47.15 24.3429 47.3652 24.1965C47.4038 24.1702 47.4444 24.1426 47.488 24.1141C47.5051 24.103 47.5415 24.0708 47.5875 24.0302C47.7537 23.8835 48.0444 23.6268 47.9943 23.8558C47.9798 23.9217 47.9528 23.9846 47.9256 24.048C47.8918 24.1266 47.8578 24.2058 47.8472 24.2921C47.844 24.3183 47.8411 24.3445 47.8381 24.3705L47.8381 24.3705C47.8232 24.5042 47.8086 24.6349 47.7539 24.76C47.7294 24.8159 47.7221 24.9013 47.7144 24.9915C47.7016 25.1423 47.6877 25.3064 47.5898 25.3685C47.5057 25.4219 47.4305 25.4856 47.3553 25.5493C47.2472 25.6409 47.1391 25.7326 47.0044 25.7933C46.9548 25.8157 46.91 25.8376 46.8677 25.8583C46.7042 25.9382 46.5778 26 46.3568 26H45.6808C45.4302 26 45.3324 26 44.9201 25.8967C44.8717 25.8846 44.8309 25.8745 44.7957 25.8659C44.5989 25.8175 44.58 25.8128 44.425 25.7342C44.3138 25.6778 44.222 25.5558 44.1314 25.4355C44.049 25.326 43.9676 25.2179 43.8736 25.1618C43.7709 25.1005 43.7004 24.9947 43.6303 24.8895C43.5728 24.8032 43.5156 24.7172 43.4409 24.6566C43.1613 24.4296 42.946 24.0629 42.7509 23.7306C42.6998 23.6436 42.6501 23.5589 42.601 23.4797C42.1263 22.7145 41.691 22.0201 40.9974 21.4245C40.8348 21.2848 40.6886 21.1251 40.542 20.965L40.542 20.965C40.3945 20.8039 40.2466 20.6423 40.0811 20.5002C39.9352 20.3749 39.7539 20.2868 39.5787 20.2017L39.5787 20.2017C39.5334 20.1796 39.4885 20.1578 39.4447 20.1356C39.3666 20.096 39.2894 20.0491 39.2121 20.0021C39.0717 19.9168 38.9308 19.8312 38.7829 19.7883C38.6501 19.7498 38.5145 19.683 38.3792 19.6163C38.2775 19.5662 38.176 19.5162 38.0759 19.4783C37.9761 19.4405 37.8795 19.3987 37.783 19.3569C37.7622 19.3479 37.7415 19.3389 37.7207 19.33L35 19.5C35 19.5 35.4882 17.8787 35 17C34.5118 16.1213 32.5 15 32.5 15L35 15.119V14.3333Z" fill="#1E2316"/>
<path fill-rule="evenodd" clip-rule="evenodd" d="M47.8647 22.6366C48.4325 22.6652 49.0032 22.3629 49.3052 21.8143C49.7209 21.059 49.4697 20.1228 48.7439 19.7233C48.1423 19.3922 47.4036 19.5338 46.9316 20.0221C47.2416 19.9395 47.5658 19.9659 47.8492 20.1218C48.4983 20.4792 48.6875 21.3811 48.2717 22.1365C48.1628 22.3344 48.0232 22.5026 47.8647 22.6366Z" fill="#1E2316"/>
<path fill-rule="evenodd" clip-rule="evenodd" d="M49.8628 22.3755C50.301 22.3241 50.778 21.9707 51.079 21.4239C51.4995 20.6599 51.4173 19.8076 50.8953 19.5203C50.3732 19.2329 49.6092 19.6193 49.1886 20.3833C49.1277 20.494 49.0773 20.6065 49.0373 20.7189C49.4419 20.1804 49.9524 19.9025 50.2782 20.0819C50.6697 20.2974 50.6462 21.0914 50.2256 21.8554C50.1175 22.0518 49.9937 22.2271 49.8628 22.3755Z" fill="#1E2316"/>
<path d="M34.5519 18.5297C35.211 17.6102 36.471 17.8753 37.0186 18.1228C38.6613 18.8654 42.3544 21.505 41.5 21.2405C40.432 20.9099 38.48 20.2559 37 20.5C35.816 20.6953 34.0823 20.8031 33.4788 21.2405C33.5618 20.72 33.8928 19.4492 34.5519 18.5297Z" fill="#1E2316"/>
<path d="M29.5 17.5C27.5 17.1 23 17.0777 24 20C23.5 20 22 18.8 22 18C22 17 24 17 27 15.5C29.4 14.3 33 14.3333 34.5 14.5L36 19.5C34.6667 19 31.5 17.9 29.5 17.5Z" fill="#1E2316"/>
<path d="M30 12C28.5455 11.6 25.6061 9.83333 25 9C25 10.3333 27.5 12 29.5455 13C32.5418 14.4649 33.1818 14.5 34.5455 15C35.9091 15.5 36.8182 16 40 16C39.8485 15.6667 38.6364 13.5 37.2727 13C35.8353 12.473 31.8182 12.5 30 12Z" fill="#1E2316"/>
<path d="M42.0817 15.9322C41.4088 15.4455 41.1896 15.502 40.8922 15.502C40.2974 15.502 39.7974 15.5 39.5 15.5C39.5 15.7868 40.4758 16.8785 41.1896 17.2226C42.0817 17.6528 43.1842 17.5268 42.9739 17.2226C42.6765 16.7925 42.6765 16.3623 42.0817 15.9322Z" fill="#FAFAFA"/>
<path d="M27.5 13.5C28.7 13.9 32 14.5 33 14.5C31 15.5 25.9 17 25.5 17C25.1 17 22 16 21 16C21.1667 15.8333 23.0528 15.7236 23.5 15.5C24.5 15 25 15 25.5 15C26 15 26.4 15.4 26 15C25.6 14.6 24.8333 12.8333 24.5 12C25 12.3333 26.3 13.1 27.5 13.5Z" fill="#1E2316"/>
<path fill-rule="evenodd" clip-rule="evenodd" d="M44.5 29.372C45 29.872 46.2 30.872 47 30.872C47.5858 30.872 48.5147 30.5288 49.2843 30.2445C49.8284 30.0435 50.2929 29.872 50.5 29.872C50.6845 29.872 50.4838 30.1575 50.1988 30.5632C49.7111 31.2573 48.9764 32.3029 49.5 32.872C49.6115 32.9932 49.3942 32.7736 49.0939 32.4701C48.9083 32.2825 48.691 32.0629 48.5 31.872C48.3334 32.5386 47.8 33.872 47 33.872C46.8252 33.872 46.6199 33.8261 46.3974 33.7452C44.7558 31.3241 42.6894 29.6685 40.8525 29.1972C42.1228 28.9758 43.8622 28.8349 44.5 29.372Z" fill="#1E2316"/>
<path fill-rule="evenodd" clip-rule="evenodd" d="M50.2437 33.2746C50.2152 33.1465 50.2 33.0114 50.2 32.872C50.2 32.0435 50.7373 31.372 51.4 31.372C51.6186 31.372 51.8235 31.445 52 31.5726C52.1765 31.445 52.3814 31.372 52.6 31.372C52.8186 31.372 53.0235 31.445 53.2 31.5726C53.3765 31.445 53.5814 31.372 53.8 31.372C54.3225 31.372 54.767 31.7894 54.9317 32.3719C54.9759 32.2156 55 32.0473 55 31.872C55 31.0435 54.4627 30.372 53.8 30.372C53.7773 30.372 53.7548 30.3727 53.7324 30.3743C53.5682 29.7905 53.1232 29.372 52.6 29.372C52.3043 29.372 52.0336 29.5056 51.8245 29.7273C51.5337 29.5032 51.1806 29.372 50.8 29.372C49.8059 29.372 49 30.2674 49 31.372C49 32.2608 49.5219 33.0142 50.2437 33.2746Z" fill="#1E2316"/>
<path d="M50.7938 35.7638C50.7409 35.8872 50.6833 35.9646 50.6429 36C50.6873 35.9351 50.7387 35.8553 50.7938 35.7638C50.8655 35.5966 50.9286 35.3452 50.9286 35C50.9286 34.25 50.5 33.5 50.5 33C50.5 32.5 50.6429 32 50.9286 32C51.2143 32 51.5 32.75 51.5 33.75C51.5 34.4255 51.0926 35.2673 50.7938 35.7638Z" fill="#1E2316"/>
<path d="M52.2938 35.7638C52.2409 35.8872 52.1833 35.9646 52.1429 36C52.1873 35.9351 52.2387 35.8553 52.2938 35.7638C52.3655 35.5966 52.4286 35.3452 52.4286 35C52.4286 34.25 52 33.5 52 33C52 32.5 52.1429 32 52.4286 32C52.7143 32 53 32.75 53 33.75C53 34.4255 52.5926 35.2673 52.2938 35.7638Z" fill="#1E2316"/>
<path d="M53.7938 34.8228C53.7409 34.9154 53.6833 34.9735 53.6429 35C53.6873 34.9514 53.7387 34.8915 53.7938 34.8228C53.8655 34.6975 53.9286 34.5089 53.9286 34.25C53.9286 33.6875 53.5 33.125 53.5 32.75C53.5 32.375 53.6429 32 53.9286 32C54.2143 32 54.5 32.5625 54.5 33.3125C54.5 33.8191 54.0926 34.4505 53.7938 34.8228Z" fill="#1E2316"/>
<path fill-rule="evenodd" clip-rule="evenodd" d="M38.7241 43.4391C38.7119 43.3084 38.685 43.1751 38.6422 43.0424C38.3881 42.2539 37.6707 41.7795 37.0399 41.9828C36.8319 42.0498 36.6593 42.1822 36.5304 42.3578C36.3233 42.2905 36.1058 42.2838 35.8978 42.3509C35.6898 42.4179 35.5171 42.5503 35.3883 42.7259C35.1811 42.6586 34.9637 42.6519 34.7556 42.719C34.2584 42.8793 33.9633 43.4129 33.9852 44.0179C33.8952 43.8826 33.8207 43.7298 33.7669 43.563C33.5128 42.7745 33.8181 41.9705 34.4489 41.7672C34.4705 41.7602 34.4922 41.7541 34.514 41.7487C34.4912 41.1426 34.7863 40.6078 35.2843 40.4473C35.5657 40.3566 35.8644 40.4008 36.1314 40.5476C36.3395 40.2452 36.6352 40.0119 36.9975 39.8952C37.9437 39.5902 38.9854 40.1953 39.3242 41.2466C39.5969 42.0926 39.3313 42.9698 38.7241 43.4391Z" fill="#1E2316"/>
<path d="M40.0001 45.9316C40.0883 46.0328 40.1669 46.0888 40.2163 46.1101C40.154 46.062 40.0806 46.0018 40.0001 45.9316C39.8806 45.7945 39.7435 45.5745 39.6376 45.246C39.4075 44.5321 39.5854 43.6868 39.432 43.2109C39.2786 42.735 38.9893 42.3029 38.7173 42.3906C38.4454 42.4782 38.4035 43.2797 38.7103 44.2315C38.9175 44.8744 39.5634 45.5507 40.0001 45.9316Z" fill="#1E2316"/>
<path d="M38.0966 46.5451C38.1848 46.6463 38.2634 46.7023 38.3127 46.7236C38.2505 46.6755 38.1771 46.6153 38.0966 46.5451C37.977 46.408 37.8399 46.188 37.734 45.8595C37.5039 45.1456 37.6818 44.3003 37.5284 43.8244C37.3751 43.3485 37.0857 42.9164 36.8138 43.0041C36.5418 43.0917 36.4999 43.8932 36.8067 44.845C37.0139 45.4879 37.6598 46.1642 38.0966 46.5451Z" fill="#1E2316"/>
<path d="M35.9043 46.263C35.983 46.3348 36.0557 46.3725 36.1023 46.3853C36.0451 46.3526 35.9778 46.3114 35.9043 46.263C35.7976 46.1657 35.6797 46.0055 35.6003 45.7591C35.4278 45.2237 35.6631 44.5569 35.5481 44.2C35.4331 43.843 35.1821 43.5299 34.9101 43.6176C34.6382 43.7052 34.5388 44.3282 34.7689 45.0421C34.9243 45.5243 35.5057 46.0002 35.9043 46.263Z" fill="#1E2316"/>
<path fill-rule="evenodd" clip-rule="evenodd" d="M43.0058 38.8027C41.9556 39.9181 39.3127 40.457 37.9141 40.5969C37.2474 41.0969 35.8141 41.9969 35.4141 41.5969C34.9141 41.0969 35.9141 38.0969 37.4141 37.5969C38.0959 37.3696 38.881 37.4522 39.4877 37.5161C40.2157 37.5927 40.6868 37.6423 40.4141 37.0969C40.1782 36.6252 39.9308 35.7828 39.7333 35C41.1559 36.056 42.2823 37.3512 43.0058 38.8027Z" fill="#1E2316"/>
</g>
<path d="M66.2625 15.8938C67.5824 16.1319 67.0902 17.0622 66.5925 16.6944C66.5438 16.4348 66.3653 16.121 66.2193 15.9209L66.2625 15.8938ZM63.0386 15.4773L63.9095 15.7424C63.8878 15.8073 63.8175 15.856 63.6931 15.8506C63.6228 16.0453 63.5525 16.2292 63.4713 16.4131C64.0123 16.1968 64.6614 15.8506 64.9913 15.6071L65.4349 15.9966V15.5476L66.2625 15.6342C66.2571 15.7045 66.2084 15.7694 66.0678 15.7911C66.057 16.2887 66.0516 16.781 66.0732 17.2462H66.4032L66.7169 16.8296C66.7169 16.8296 67.0685 17.1163 67.2849 17.3165C67.2687 17.376 67.2092 17.403 67.1334 17.403H66.084C66.1057 17.7817 66.1489 18.1387 66.2193 18.4633C66.3545 18.1603 66.4519 17.8628 66.5222 17.5761L67.2687 17.8791C67.2416 17.9386 67.1875 17.9764 67.0523 17.9656C66.9008 18.328 66.6953 18.7121 66.4194 19.0745C66.5005 19.2692 66.6087 19.4369 66.7331 19.5776C66.798 19.6587 66.8251 19.6533 66.8738 19.5613C66.9549 19.4207 67.0793 19.1502 67.1659 18.923L67.2254 18.9339L67.1064 19.848C67.2578 20.1834 67.2903 20.3782 67.1983 20.4539C66.9171 20.6757 66.5222 20.4106 66.3383 20.1834C66.1922 19.9995 66.0678 19.8048 65.965 19.5884C65.6729 19.8697 65.3321 20.1185 64.9264 20.3078L64.8832 20.2483C65.251 19.967 65.5647 19.61 65.8136 19.2206C65.6242 18.6904 65.5323 18.0792 65.4836 17.403H64.8291V18.1171L65.462 17.9602L65.4728 18.0197C65.2997 18.1387 65.0887 18.2739 64.8291 18.4308V19.7939C64.8291 20.2051 64.7371 20.5026 64.088 20.5567C64.0826 20.3619 64.0555 20.2159 63.996 20.1239C63.9257 20.032 63.8283 19.9616 63.5903 19.9238V19.848C63.5903 19.848 64.0231 19.8805 64.1259 19.8805C64.207 19.8805 64.2286 19.8426 64.2286 19.7777V18.7824L63.8175 19.0096C63.7959 19.0799 63.7364 19.1394 63.6769 19.1556L63.3686 18.4308C63.5471 18.4038 63.8608 18.3388 64.2286 18.2577V17.403H63.4605L63.4172 17.2462H64.2286V16.4185C63.9636 16.4564 63.6877 16.4889 63.4281 16.5105C63.3686 16.6457 63.2982 16.781 63.2333 16.9162L63.4443 16.9919C63.4226 17.0406 63.3794 17.0785 63.2766 17.0947V20.389C63.2712 20.4322 63.0224 20.5567 62.8006 20.5567H62.6978V17.7546C62.5301 17.9764 62.3462 18.1712 62.1569 18.3497L62.092 18.3064C62.4598 17.6086 62.8439 16.5051 63.0386 15.4773ZM65.4728 17.2462C65.4511 16.927 65.4457 16.5916 65.4403 16.24L65.3213 16.213C65.1807 16.2509 65.013 16.2887 64.8291 16.3212V17.2462H65.4728ZM70.8929 15.5368L71.7313 15.6126C71.7151 15.6991 71.661 15.7478 71.5258 15.7694L71.515 16.8946H71.9531L72.2777 16.5592L72.8348 17.046C72.797 17.0947 72.7266 17.1272 72.6022 17.1434C72.5644 19.2422 72.4832 19.9941 72.1965 20.2808C72.0234 20.4647 71.7908 20.5404 71.5095 20.5404C71.5095 20.3403 71.4933 20.1996 71.423 20.1131C71.3473 20.0211 71.1958 19.9508 70.9957 19.9021L71.0011 19.8264C71.1742 19.848 71.4446 19.8643 71.5528 19.8643C71.6394 19.8643 71.6881 19.8426 71.7367 19.7939C71.9098 19.6317 71.9747 18.7932 72.0072 17.046H71.5095C71.4717 18.5823 71.2499 19.7453 69.8435 20.5458L69.784 20.4701C70.1085 20.1618 70.3357 19.8264 70.498 19.464H69.4432V20.3944C69.4432 20.4268 69.2701 20.5458 68.9672 20.5458H68.8644V19.464H67.7771L67.7339 19.3125H68.8644V18.6742H68.4858V18.804C68.4858 18.8419 68.3181 18.9339 68.053 18.9339H67.961V17.3165L68.5453 17.5491H68.8644V17.1326C68.7941 17.1758 68.6156 17.2299 68.4587 17.2299H68.3667V16.3915H67.7988L67.7555 16.24H68.3667V15.4881L69.0862 15.5476C69.0754 15.6234 69.0321 15.6721 68.9023 15.6937V16.24H69.4161V15.4881L70.1464 15.5476C70.141 15.6234 70.0977 15.6721 69.9679 15.6937V16.24H70.0058L70.2816 15.8452C70.2816 15.8452 70.5954 16.1156 70.7739 16.3104C70.7577 16.3645 70.709 16.3915 70.6332 16.3915H69.9679V17.0622C69.9679 17.1109 69.7245 17.1975 69.5189 17.1975H69.4432V17.5491H69.8273L70.0869 17.257L70.5954 17.641C70.5629 17.6843 70.5088 17.7168 70.4006 17.733V18.7229C70.4006 18.7445 70.2167 18.8419 69.9409 18.8419H69.8435V18.6742H69.4432V19.3125H69.7678L70.0869 18.8906C70.0869 18.8906 70.3574 19.107 70.5683 19.2909C70.8172 18.6472 70.8821 17.9007 70.8929 17.046H70.4115L70.3628 16.8946H70.8929V15.5368ZM68.9023 16.3915V16.8621H69.4161V16.3915H68.9023ZM68.4858 18.5228H68.8644V17.7005H68.4858V18.5228ZM69.8435 18.5228V17.7005H69.4432V18.5228H69.8435ZM77.2867 16.4997C77.265 16.5592 77.2164 16.6025 77.0757 16.5971C76.9243 17.0352 76.7241 17.495 76.4536 17.944C77.4814 19.0475 77.1406 19.8805 76.5835 19.491C76.4428 19.1935 76.2697 18.8581 76.0588 18.5065C75.6639 19.0096 75.1554 19.4586 74.5117 19.7939L74.4576 19.7399C75.0202 19.2855 75.4529 18.685 75.7721 18.0576C75.4259 17.5491 75.0094 17.046 74.5171 16.6403L74.5658 16.5862C75.1716 16.9 75.6477 17.2191 76.0155 17.5329C76.194 17.0893 76.3238 16.6457 76.4104 16.24L77.2867 16.4997ZM74.3494 20.3186C74.3494 20.3944 74.1006 20.5512 73.8301 20.5512H73.722V15.5855L74.3981 15.8614H77.3245L77.6166 15.526L78.2279 16.0074C78.19 16.0453 78.1143 16.094 78.0061 16.1156V19.848C78.0061 20.2646 77.8925 20.5026 77.119 20.5729C77.0974 20.3782 77.0595 20.2429 76.9513 20.1564C76.8377 20.0644 76.6917 19.9941 76.3563 19.9454V19.8697C76.3563 19.8697 77.0811 19.9184 77.238 19.9184C77.3516 19.9184 77.3786 19.8697 77.3786 19.7885V16.0128H74.3494V20.3186ZM82.3931 15.5747C82.3876 15.645 82.339 15.6991 82.22 15.7153V16.6457C82.604 16.3645 82.9286 16.0723 83.1504 15.8019L83.8482 16.332C83.8103 16.3807 83.7508 16.4077 83.6372 16.3699C83.2802 16.6457 82.7879 16.9216 82.22 17.1596V17.6519C82.22 17.7384 82.247 17.7709 82.4147 17.7709H82.8691C83.0259 17.7709 83.172 17.7709 83.2423 17.76C83.3126 17.76 83.3451 17.7438 83.383 17.6897C83.4479 17.5924 83.5398 17.3219 83.6372 16.9973H83.6967L83.7129 17.7168C83.8914 17.7925 83.9347 17.8574 83.9347 17.9602C83.9347 18.2252 83.6751 18.2793 82.7988 18.2793H82.2686C81.7115 18.2793 81.5763 18.1603 81.5763 17.7546V17.3976C81.2733 17.495 80.9596 17.5761 80.6404 17.641L80.6026 17.5761C80.9325 17.4355 81.2625 17.2624 81.5763 17.0731V15.499L82.3931 15.5747ZM83.3721 18.4795C83.3721 18.4795 83.7724 18.8149 83.9996 19.0366C83.9834 19.0961 83.9293 19.1232 83.8482 19.1232H81.771V20.416C81.771 20.4593 81.4735 20.5729 81.2138 20.5729H81.0948V19.1232H78.9257L78.8824 18.9717H81.0948V18.209L81.9495 18.2848C81.9387 18.3551 81.9008 18.4038 81.771 18.4254V18.9717H83.0259L83.3721 18.4795ZM81.1381 15.7802C81.1111 15.8397 81.0678 15.8722 80.9325 15.8722C80.8135 16.0778 80.6567 16.2941 80.4728 16.5105L80.7054 16.5971C80.6891 16.6457 80.6296 16.6836 80.5377 16.6998V18.328C80.5269 18.3713 80.2672 18.4903 80.0184 18.4903H79.8994V17.0893C79.6181 17.3327 79.2989 17.5545 78.9582 17.7222L78.9095 17.6735C79.5315 17.0677 80.0454 16.1264 80.2726 15.4611L81.1381 15.7802ZM87.0883 15.8073C87.2019 17.8845 87.7104 19.1448 89.5604 19.8264L89.555 19.8913C89.225 19.9508 89.0195 20.1726 88.9437 20.5242C87.586 19.8102 87.1803 18.539 87.0451 16.8188C86.9423 18.1982 86.5474 19.583 84.5243 20.5512L84.4648 20.4755C86.4446 19.0312 86.3905 17.2894 86.3959 15.5693L87.2831 15.6558C87.2722 15.737 87.229 15.7857 87.0883 15.8073ZM94.1475 16.3969C94.1258 16.4672 94.0826 16.5105 93.9365 16.5213C93.8554 16.9108 93.7472 17.3544 93.5903 17.8033C94.2502 18.9609 93.85 19.7128 93.4875 19.2963C93.4388 19.0691 93.3848 18.7878 93.309 18.4957C93.0548 19.015 92.7248 19.5127 92.2758 19.9075L92.2163 19.8643C92.6275 19.2638 92.9033 18.4849 93.0764 17.7276C92.9466 17.3598 92.7843 16.9919 92.5788 16.6836L92.6491 16.6403C92.8546 16.8351 93.0277 17.0244 93.1792 17.2083C93.2387 16.8675 93.282 16.5321 93.3036 16.2346L94.1475 16.3969ZM92.7573 16.4077C92.741 16.478 92.6924 16.5213 92.5463 16.5321C92.4706 16.927 92.3624 17.3814 92.2055 17.8412C92.7681 18.7608 92.4544 19.3882 92.0865 19.0421L91.9297 18.5282C91.7133 18.988 91.4266 19.4261 91.0533 19.7777L90.9938 19.7344C91.3184 19.2043 91.5402 18.5336 91.6808 17.8682C91.5077 17.4517 91.2914 17.0298 91.0101 16.689L91.0696 16.6457C91.3617 16.8621 91.5997 17.0839 91.789 17.2948C91.8485 16.9216 91.8864 16.5592 91.908 16.24L92.7573 16.4077ZM90.956 20.3241C90.956 20.3998 90.718 20.5512 90.4529 20.5512H90.3501V15.5909L91.0047 15.8614H94.0988L94.3909 15.5314L94.9967 16.0074C94.9589 16.0507 94.8831 16.094 94.7695 16.1156V19.8426C94.7695 20.2591 94.6613 20.5026 93.8986 20.5675C93.8716 20.3782 93.8337 20.2429 93.7255 20.1564C93.6119 20.0644 93.4713 19.9941 93.1359 19.9454V19.8697C93.1359 19.8697 93.8554 19.9184 94.0122 19.9184C94.1258 19.9184 94.1529 19.8697 94.1529 19.7885V16.0183H90.956V20.3241ZM97.4634 17.0947C98.8157 17.6356 98.1828 18.6364 97.6906 18.1549C97.6906 17.8033 97.5499 17.4084 97.4093 17.1218L97.4634 17.0947ZM97.0414 15.6288C97.0414 15.6288 97.3822 15.9371 97.5716 16.1373C97.5607 16.1968 97.5012 16.2238 97.4309 16.2238H96.7926V17.5653H96.8359L97.0901 17.1596C97.0901 17.1596 97.3822 17.4409 97.5391 17.6302C97.5283 17.6897 97.4742 17.7168 97.3985 17.7168H96.7926V18.869C97.0252 18.777 97.2632 18.6742 97.4958 18.5714L97.5175 18.6255C97.1821 18.9339 96.679 19.3612 95.9866 19.848C95.9704 19.9184 95.9271 19.9833 95.8622 20.0103L95.5431 19.3233C95.6945 19.2801 95.9217 19.1989 96.1922 19.1016V17.7168H95.6891L95.6458 17.5653H96.1922V16.2238H95.6513L95.608 16.0669H96.7439L97.0414 15.6288ZM99.4107 15.6721C100.287 15.6612 100.39 16.1048 100.206 16.2995C100.33 16.4023 100.525 16.5592 100.66 16.6836C100.644 16.7431 100.59 16.7701 100.514 16.7701H99.124C99.1943 17.2462 99.3025 17.641 99.4378 17.9656C99.6109 17.6627 99.7894 17.3003 99.9246 16.9919L100.601 17.4625C100.557 17.5112 100.514 17.522 100.406 17.5004C100.163 17.6951 99.811 17.944 99.5189 18.1441C99.8326 18.7824 100.271 19.1502 100.747 19.4045L100.725 19.4586C100.471 19.5235 100.265 19.7615 100.184 20.0752C99.5568 19.4423 99.2484 18.7013 99.1078 17.2083V19.8372C99.1078 20.2646 99.0158 20.4917 98.3072 20.5512C98.291 20.3673 98.2639 20.2267 98.1828 20.1456C98.0963 20.0536 97.9827 19.9887 97.7122 19.9454V19.8697C97.7122 19.8697 98.2531 19.913 98.3721 19.913C98.4641 19.913 98.4911 19.8859 98.4911 19.8102V18.75C98.2315 19.0421 97.8907 19.4045 97.4471 19.821C97.4471 19.8913 97.4039 19.967 97.3498 19.9995L96.8846 19.345C97.1659 19.226 97.815 18.8906 98.4911 18.5228V16.7701H97.2145L97.1713 16.6133H98.4911V15.499L99.2971 15.5801C99.2863 15.6558 99.2484 15.7045 99.1078 15.7262V16.6133H99.7569L99.9354 16.3807C99.8921 16.3699 99.8435 16.3536 99.8002 16.3266C99.7461 16.1048 99.5514 15.8452 99.3674 15.7099L99.4107 15.6721ZM105.545 17.4355C106.784 18.1766 106.178 19.1935 105.713 18.6904C105.745 18.2848 105.626 17.8087 105.48 17.4625L105.545 17.4355ZM103.138 17.3922C103.381 18.0576 103.273 18.5552 103.057 18.7878C102.911 18.9555 102.618 18.9501 102.51 18.7554C102.424 18.5823 102.505 18.4038 102.662 18.2956C102.835 18.1441 103.062 17.7655 103.062 17.3868L103.138 17.3922ZM102.618 16.6457C102.618 16.6457 102.943 16.9054 103.138 17.0893C103.121 17.1488 103.067 17.1758 102.992 17.1758H102.278V20.3349C102.278 20.4052 102.018 20.5458 101.796 20.5458H101.677V17.1758H101.169L101.125 17.019H101.677V15.4827L102.451 15.5585C102.44 15.6288 102.402 15.6775 102.278 15.6991V17.019H102.337L102.618 16.6457ZM104.49 15.5585C104.479 15.6396 104.425 15.6883 104.29 15.7099L104.279 16.6566H104.809L105.15 16.3158L105.713 16.8134C105.675 16.8621 105.604 16.9 105.48 16.9162C105.447 19.107 105.377 19.9508 105.085 20.2537C104.907 20.4431 104.663 20.5296 104.355 20.5296C104.355 20.3186 104.333 20.1726 104.257 20.086C104.176 19.9887 104.003 19.913 103.781 19.8643L103.787 19.7885C103.987 19.8102 104.295 19.8264 104.409 19.8264C104.501 19.8264 104.555 19.8102 104.604 19.7615C104.782 19.5884 104.836 18.6418 104.874 16.8134H104.274C104.225 18.3497 103.998 19.6479 102.499 20.5567L102.435 20.4863C103.446 19.4748 103.608 18.2469 103.635 16.8134H102.921L102.873 16.6566H103.635V15.4773L104.49 15.5585ZM109.461 15.8614C108.936 16.6728 107.806 17.522 106.751 17.9494L106.713 17.8845C107.627 17.3165 108.65 16.2076 108.893 15.4503L109.813 15.6775C109.791 15.7478 109.721 15.7802 109.553 15.7965C110.045 16.4456 111.019 16.8567 111.858 17.1109L111.852 17.1867C111.592 17.257 111.414 17.5166 111.365 17.7438C110.554 17.3273 109.807 16.6944 109.461 15.8614ZM110.035 17.0136C110.035 17.0136 110.402 17.284 110.624 17.4788C110.613 17.5383 110.554 17.5653 110.478 17.5653H107.968L107.925 17.4139H109.71L110.035 17.0136ZM109.851 18.9555C111.901 19.5235 111.522 20.865 110.851 20.4593C110.776 20.2862 110.673 20.1023 110.548 19.913C109.872 20.0536 108.899 20.2267 107.73 20.4052C107.687 20.4647 107.638 20.5026 107.584 20.5242L107.314 19.7885C107.314 19.7885 107.449 19.7669 107.514 19.7344C107.952 19.5289 108.563 18.8852 108.812 18.4849H107.038L106.989 18.3334H110.597L110.965 17.8736C110.965 17.8736 111.376 18.182 111.63 18.3983C111.614 18.4578 111.555 18.4849 111.473 18.4849H108.964L109.634 18.8581C109.607 18.9122 109.542 18.9447 109.429 18.923C109.088 19.2152 108.455 19.583 107.892 19.8156C108.509 19.8156 109.45 19.7994 110.451 19.7777C110.24 19.491 110.002 19.2152 109.797 18.9934L109.851 18.9555Z" fill="black"/>
<defs>
<clipPath id="clip0_5_1908">
<rect width="70" height="70" fill="white"/>
</clipPath>
</defs>
</svg>
