<svg width="355" height="80" viewBox="0 0 355 80" fill="none" xmlns="http://www.w3.org/2000/svg">
<path d="M89.4391 51.225V32.8463C89.4391 32.1062 88.9457 31.6128 88.2056 31.6128C87.4655 31.6128 86.9722 32.1062 86.9722 32.8463V51.225C86.9722 51.9651 87.4655 52.4585 88.2056 52.4585C88.9457 52.4585 89.4391 51.9651 89.4391 51.225ZM84.5052 50.9783V33.093C84.5052 30.9036 86.0162 29.3926 88.2056 29.3926C90.395 29.3926 91.906 30.9036 91.906 33.093V50.9783C91.906 53.1677 90.395 54.6787 88.2056 54.6787C86.0162 54.6787 84.5052 53.1677 84.5052 50.9783ZM94.2055 54.3704V35.8683H96.0558L96.3024 37.4101H96.5183C96.8575 36.2692 97.6593 35.5599 98.6769 35.5599C100.034 35.5599 100.99 36.8242 100.99 38.6436V42.0357H98.5227V38.952C98.5227 38.2119 98.1527 37.7185 97.5976 37.7185C97.0425 37.7185 96.6725 38.2119 96.6725 38.952V54.3704H94.2055ZM106.063 54.6787C103.874 54.6787 102.363 53.1677 102.363 50.9783V39.2603C102.363 37.0709 103.874 35.5599 106.063 35.5599C108.253 35.5599 109.764 37.0709 109.764 39.2603V45.1193H104.83V51.225C104.83 51.9651 105.323 52.4585 106.063 52.4585C106.803 52.4585 107.297 51.9651 107.297 51.225V47.3396H109.764V50.9783C109.764 53.1677 108.253 54.6787 106.063 54.6787ZM104.83 42.8991H107.297V39.0137C107.297 38.2736 106.803 37.7802 106.063 37.7802C105.323 37.7802 104.83 38.2736 104.83 39.0137V42.8991ZM116.843 57.3924V52.6127H116.596C116.103 53.3219 115.332 53.7536 114.376 53.7536C112.742 53.7536 111.909 52.4893 111.909 50.67V38.6436C111.909 36.8242 112.896 35.5599 114.53 35.5599C115.764 35.5599 116.627 36.2692 116.966 37.4101H117.151L117.46 35.8683H119.31V57.1457C119.31 59.3351 117.799 60.8461 115.609 60.8461C113.42 60.8461 111.909 59.3351 111.909 57.1457V55.2338H114.376V57.3924C114.376 58.1324 114.869 58.6258 115.609 58.6258C116.349 58.6258 116.843 58.1324 116.843 57.3924ZM114.376 50.3616C114.376 51.04 114.869 51.5951 115.609 51.5951C116.349 51.5951 116.843 51.04 116.843 50.3616V38.952C116.843 38.2736 116.349 37.7185 115.609 37.7185C114.869 37.7185 114.376 38.2736 114.376 38.952V50.3616ZM126.57 51.225V39.0137C126.57 38.2736 126.076 37.7802 125.336 37.7802C124.596 37.7802 124.103 38.2736 124.103 39.0137V51.225C124.103 51.9651 124.596 52.4585 125.336 52.4585C126.076 52.4585 126.57 51.9651 126.57 51.225ZM121.636 50.9783V39.2603C121.636 37.0709 123.147 35.5599 125.336 35.5599C127.526 35.5599 129.037 37.0709 129.037 39.2603V50.9783C129.037 53.1677 127.526 54.6787 125.336 54.6787C123.147 54.6787 121.636 53.1677 121.636 50.9783ZM131.336 54.3704V35.8683H133.186L133.433 37.4101H133.68C134.019 36.2692 134.882 35.5599 136.116 35.5599C137.75 35.5599 138.737 36.8242 138.737 38.6436V54.3704H136.27V38.952C136.27 38.2736 135.777 37.7185 135.037 37.7185C134.296 37.7185 133.803 38.2736 133.803 38.952V54.3704H131.336ZM150.781 40.0313V32.8463C150.781 32.1062 150.288 31.6128 149.548 31.6128C148.808 31.6128 148.314 32.1062 148.314 32.8463V51.225C148.314 51.9651 148.808 52.4585 149.548 52.4585C150.288 52.4585 150.781 51.9651 150.781 51.225V44.04H153.248V50.9783C153.248 53.1677 151.737 54.6787 149.548 54.6787C147.358 54.6787 145.847 53.1677 145.847 50.9783V33.093C145.847 30.9036 147.358 29.3926 149.548 29.3926C151.737 29.3926 153.248 30.9036 153.248 33.093V40.0313H150.781ZM155.548 54.3704V29.701H158.015V36.7009H158.261C158.755 35.9917 159.526 35.5599 160.482 35.5599C162.116 35.5599 162.949 36.8242 162.949 38.6436V54.3704H160.482V38.952C160.482 38.2736 159.988 37.7185 159.248 37.7185C158.508 37.7185 158.015 38.2736 158.015 38.952V54.3704H155.548ZM165.275 54.3704V35.8683H167.742V54.3704H165.275ZM165.275 33.4014V30.9344H167.742V33.4014H165.275ZM170.213 54.3704V35.8683H172.064L172.31 37.4101H172.557C172.896 36.2692 173.76 35.5599 174.993 35.5599C176.627 35.5599 177.614 36.8242 177.614 38.6436V54.3704H175.147V38.952C175.147 38.2736 174.654 37.7185 173.914 37.7185C173.174 37.7185 172.68 38.2736 172.68 38.952V54.3704H170.213ZM183.486 54.6787C181.297 54.6787 179.786 53.1677 179.786 50.9783V39.2603C179.786 37.0709 181.297 35.5599 183.486 35.5599C185.676 35.5599 187.187 37.0709 187.187 39.2603V45.1193H182.253V51.225C182.253 51.9651 182.746 52.4585 183.486 52.4585C184.226 52.4585 184.72 51.9651 184.72 51.225V47.3396H187.187V50.9783C187.187 53.1677 185.676 54.6787 183.486 54.6787ZM182.253 42.8991H184.72V39.0137C184.72 38.2736 184.226 37.7802 183.486 37.7802C182.746 37.7802 182.253 38.2736 182.253 39.0137V42.8991ZM192.57 54.6787C190.381 54.6787 188.87 53.1677 188.87 50.9783V47.9563H191.337V51.225C191.337 51.9651 191.83 52.4585 192.57 52.4585C193.31 52.4585 193.803 51.9651 193.803 50.7933C193.803 47.0312 188.87 43.8859 188.87 39.507C188.87 37.0709 190.381 35.5599 192.57 35.5599C194.759 35.5599 196.27 37.0709 196.27 39.2603V42.344H193.803V39.0137C193.803 38.2736 193.31 37.7802 192.57 37.7802C191.83 37.7802 191.337 38.2736 191.337 39.4454C191.337 43.3 196.27 46.322 196.27 50.7316C196.27 53.1677 194.759 54.6787 192.57 54.6787ZM201.675 54.6787C199.486 54.6787 197.975 53.1677 197.975 50.9783V39.2603C197.975 37.0709 199.486 35.5599 201.675 35.5599C203.865 35.5599 205.376 37.0709 205.376 39.2603V45.1193H200.442V51.225C200.442 51.9651 200.935 52.4585 201.675 52.4585C202.415 52.4585 202.909 51.9651 202.909 51.225V47.3396H205.376V50.9783C205.376 53.1677 203.865 54.6787 201.675 54.6787ZM200.442 42.8991H202.909V39.0137C202.909 38.2736 202.415 37.7802 201.675 37.7802C200.935 37.7802 200.442 38.2736 200.442 39.0137V42.8991ZM213.847 54.3704V31.9212H211.689V29.701H218.473V31.9212H216.314V54.3704H213.847ZM222.032 54.6787C219.843 54.6787 218.332 53.1677 218.332 50.9783V39.2603C218.332 37.0709 219.843 35.5599 222.032 35.5599C224.222 35.5599 225.733 37.0709 225.733 39.2603V45.1193H220.799V51.225C220.799 51.9651 221.292 52.4585 222.032 52.4585C222.772 52.4585 223.266 51.9651 223.266 51.225V47.3396H225.733V50.9783C225.733 53.1677 224.222 54.6787 222.032 54.6787ZM220.799 42.8991H223.266V39.0137C223.266 38.2736 222.772 37.7802 222.032 37.7802C221.292 37.7802 220.799 38.2736 220.799 39.0137V42.8991ZM228.032 54.3704V35.8683H229.882L230.129 37.4101H230.376C230.715 36.2692 231.578 35.5599 232.812 35.5599C234.446 35.5599 235.433 36.8242 235.433 38.6436V54.3704H232.966V38.952C232.966 38.2736 232.473 37.7185 231.733 37.7185C230.993 37.7185 230.499 38.2736 230.499 38.952V54.3704H228.032ZM237.759 54.3704V35.8683H239.609L239.856 37.4101H240.103C240.442 36.2692 241.305 35.5599 242.539 35.5599C244.173 35.5599 245.16 36.8242 245.16 38.6436V54.3704H242.693V38.952C242.693 38.2736 242.2 37.7185 241.46 37.7185C240.719 37.7185 240.226 38.2736 240.226 38.952V54.3704H237.759ZM247.486 54.3704V35.8683H249.953V54.3704H247.486ZM247.486 33.4014V30.9344H249.953V33.4014H247.486ZM255.508 54.6787C253.319 54.6787 251.808 53.1677 251.808 50.9783V47.9563H254.275V51.225C254.275 51.9651 254.768 52.4585 255.508 52.4585C256.248 52.4585 256.742 51.9651 256.742 50.7933C256.742 47.0312 251.808 43.8859 251.808 39.507C251.808 37.0709 253.319 35.5599 255.508 35.5599C257.698 35.5599 259.209 37.0709 259.209 39.2603V42.344H256.742V39.0137C256.742 38.2736 256.248 37.7802 255.508 37.7802C254.768 37.7802 254.275 38.2736 254.275 39.4454C254.275 43.3 259.209 46.322 259.209 50.7316C259.209 53.1677 257.698 54.6787 255.508 54.6787ZM265.081 54.3704L267.455 29.701H270.909L273.284 54.3704H270.817L270.292 47.7713H268.072L267.548 54.3704H265.081ZM268.257 45.551H270.107C269.429 36.5467 269.275 32.5379 269.275 31.9212H269.09C269.09 32.5379 268.936 36.5467 268.257 45.551ZM277.913 54.6787C275.724 54.6787 274.213 53.1677 274.213 50.9783V47.9563H276.68V51.225C276.68 51.9651 277.173 52.4585 277.913 52.4585C278.653 52.4585 279.147 51.9651 279.147 50.7933C279.147 47.0312 274.213 43.8859 274.213 39.507C274.213 37.0709 275.724 35.5599 277.913 35.5599C280.103 35.5599 281.614 37.0709 281.614 39.2603V42.344H279.147V39.0137C279.147 38.2736 278.653 37.7802 277.913 37.7802C277.173 37.7802 276.68 38.2736 276.68 39.4454C276.68 43.3 281.614 46.322 281.614 50.7316C281.614 53.1677 280.103 54.6787 277.913 54.6787ZM286.556 54.6787C284.366 54.6787 282.855 53.1677 282.855 50.9783V47.9563H285.322V51.225C285.322 51.9651 285.816 52.4585 286.556 52.4585C287.296 52.4585 287.789 51.9651 287.789 50.7933C287.789 47.0312 282.855 43.8859 282.855 39.507C282.855 37.0709 284.366 35.5599 286.556 35.5599C288.745 35.5599 290.256 37.0709 290.256 39.2603V42.344H287.789V39.0137C287.789 38.2736 287.296 37.7802 286.556 37.7802C285.816 37.7802 285.322 38.2736 285.322 39.4454C285.322 43.3 290.256 46.322 290.256 50.7316C290.256 53.1677 288.745 54.6787 286.556 54.6787ZM296.895 51.225V39.0137C296.895 38.2736 296.401 37.7802 295.661 37.7802C294.921 37.7802 294.428 38.2736 294.428 39.0137V51.225C294.428 51.9651 294.921 52.4585 295.661 52.4585C296.401 52.4585 296.895 51.9651 296.895 51.225ZM291.961 50.9783V39.2603C291.961 37.0709 293.472 35.5599 295.661 35.5599C297.851 35.5599 299.362 37.0709 299.362 39.2603V50.9783C299.362 53.1677 297.851 54.6787 295.661 54.6787C293.472 54.6787 291.961 53.1677 291.961 50.9783ZM303.974 51.225C303.974 51.9651 304.467 52.4585 305.207 52.4585C305.947 52.4585 306.441 51.9651 306.441 51.225V46.3528H308.908V50.9783C308.908 53.1677 307.397 54.6787 305.207 54.6787C303.018 54.6787 301.507 53.1677 301.507 50.9783V39.2603C301.507 37.0709 303.018 35.5599 305.207 35.5599C307.397 35.5599 308.908 37.0709 308.908 39.2603V43.8859H306.441V39.0137C306.441 38.2736 305.947 37.7802 305.207 37.7802C304.467 37.7802 303.974 38.2736 303.974 39.0137V51.225ZM311.207 54.3704V35.8683H313.674V54.3704H311.207ZM311.207 33.4014V30.9344H313.674V33.4014H311.207ZM321.388 54.3704L321.08 52.8285H320.895C320.556 53.9695 319.692 54.6787 318.459 54.6787C316.824 54.6787 315.838 53.4144 315.838 51.5951V44.811C315.838 42.9916 316.67 41.7273 318.304 41.7273C319.26 41.7273 320.031 42.159 320.525 42.8682H320.771V39.0137C320.771 38.2736 320.278 37.7802 319.538 37.7802C318.798 37.7802 318.304 38.2736 318.304 39.0137V40.2471H315.838V39.2603C315.838 37.0709 317.349 35.5599 319.538 35.5599C321.727 35.5599 323.238 37.0709 323.238 39.2603V54.3704H321.388ZM318.304 51.2867C318.304 51.9651 318.798 52.5202 319.538 52.5202C320.278 52.5202 320.771 51.9651 320.771 51.2867V45.1193C320.771 44.4409 320.278 43.8859 319.538 43.8859C318.798 43.8859 318.304 44.4409 318.304 45.1193V51.2867ZM328.008 50.9166C328.008 51.6567 328.502 52.1501 329.242 52.1501H329.859V54.3704H328.933C326.929 54.3704 325.541 52.9827 325.541 50.9783V38.0886H324.616V35.8683H325.85L326.467 32.7846H328.008V35.8683H329.859V38.0886H328.008V50.9166ZM331.414 54.3704V35.8683H333.881V54.3704H331.414ZM331.414 33.4014V30.9344H333.881V33.4014H331.414ZM341.132 51.225V39.0137C341.132 38.2736 340.639 37.7802 339.899 37.7802C339.159 37.7802 338.665 38.2736 338.665 39.0137V51.225C338.665 51.9651 339.159 52.4585 339.899 52.4585C340.639 52.4585 341.132 51.9651 341.132 51.225ZM336.198 50.9783V39.2603C336.198 37.0709 337.709 35.5599 339.899 35.5599C342.088 35.5599 343.599 37.0709 343.599 39.2603V50.9783C343.599 53.1677 342.088 54.6787 339.899 54.6787C337.709 54.6787 336.198 53.1677 336.198 50.9783ZM345.899 54.3704V35.8683H347.749L347.995 37.4101H348.242C348.581 36.2692 349.445 35.5599 350.678 35.5599C352.313 35.5599 353.299 36.8242 353.299 38.6436V54.3704H350.832V38.952C350.832 38.2736 350.339 37.7185 349.599 37.7185C348.859 37.7185 348.365 38.2736 348.365 38.952V54.3704H345.899Z" fill="#FCFDFA"/>
<g clip-path="url(#clip0_8_2018)">
<path d="M34.2111 70.7581C32.6038 69.5101 32.0665 67.1606 31.9988 66.1418C29.6335 65.5934 25.666 64.5094 28.718 64.5605C32.533 64.6243 36.3905 62.1449 38.9339 62.1875C40.9685 62.2215 42.9805 63.612 43.7321 64.303C43.0553 64.2069 41.4474 64.0104 40.43 63.9933C39.4127 63.9763 37.9545 64.9695 37.3525 65.4682C38.2822 65.6534 40.6418 66.5409 42.6424 68.6096C45.1431 71.1955 47.3129 78.3552 46.0838 75.7905C44.8547 73.2259 38.0687 68.2787 39.0732 69.0587C40.0778 69.8387 41.9804 77.7571 40.7514 75.1925C39.5223 72.6279 35.0124 68.4819 35.5041 69.5077L37.2248 73.0982L34.2111 70.7581Z" fill="#1E2316"/>
<path d="M24.4966 58.3841C25.3343 56.9735 23.8624 55.7446 23.0217 55.3066L30.7155 51.6193C30.8652 52.809 30.5405 55.9921 28.0444 59.2067C24.9243 63.2249 27.4464 64.5392 30.7484 64.8488C33.3901 65.0966 37.6661 66.9999 39.3404 68.2999C37.83 67.3418 35.3008 66.4515 31.7317 66.9005C27.7813 67.3975 24.1017 66.7728 22.8726 64.2082C21.7733 61.9143 23.4494 60.1474 24.4966 58.3841Z" fill="#1E2316"/>
<circle cx="39.3386" cy="36.9709" r="25.5952" fill="#D0F04F"/>
<mask id="mask0_8_2018" style="mask-type:alpha" maskUnits="userSpaceOnUse" x="13" y="15" width="47" height="47">
<path fill-rule="evenodd" clip-rule="evenodd" d="M59.246 38.6773C59.246 51.2425 49.0599 61.4286 36.4947 61.4286C23.9295 61.4286 13.7434 51.2425 13.7434 38.6773C13.7434 26.1121 23.9295 15.926 36.4947 15.926C49.0599 15.926 59.246 26.1121 59.246 38.6773ZM50.1449 47.8649C48.3301 54.7625 38.6818 58.2026 28.5948 55.5487C18.5078 52.8947 12.4974 43.8685 14.3122 36.9709L14.5341 36.4693C16.6816 31.6108 20.4357 23.1177 23.9815 22.1826C25.6878 25.0265 27.963 28.4392 35.3572 32.4207C35.6903 32.6001 36.0271 32.7806 36.3664 32.9625L36.3665 32.9626C43.5588 36.8183 51.8779 41.2781 50.1449 47.8649ZM51.3846 37.6225C51.712 37.9591 52.052 38.3086 52.4206 38.6773C56.4021 30.1455 54.218 20.7031 45.1959 18.6356C36.1738 16.568 28.2204 17.6832 27.4313 21.1263C26.8086 23.8436 31.751 26.1181 37.2173 28.6337C38.6774 29.3057 40.1749 29.9949 41.6138 30.7143C47.5544 33.6846 49.1862 35.3623 51.3846 37.6225Z" fill="#D9D9D9"/>
</mask>
<g mask="url(#mask0_8_2018)">
<ellipse cx="37.9889" cy="24.8231" rx="14.8154" ry="8.62455" transform="rotate(8.1183 37.9889 24.8231)" fill="#1E2316"/>
<ellipse cx="37.989" cy="24.8231" rx="14.8154" ry="8.62455" transform="rotate(8.1183 37.989 24.8231)" fill="#1E2316"/>
<ellipse cx="34.9612" cy="46.2948" rx="19.959" ry="16.5929" transform="rotate(9.2015 34.9612 46.2948)" fill="#1E2316"/>
</g>
<path d="M20.5357 22.6186C20.5357 22.6186 22.5753 21.4178 23.6811 21.0006C24.7869 20.5833 25.5504 20.4762 25.5504 20.4762L24.7287 22.6186C24.7287 22.6186 23.6651 22.3615 23.1938 22.3615C22.7225 22.3615 20.5357 22.6186 20.5357 22.6186Z" fill="#1E2316"/>
<path d="M20.9136 25.2302C20.9136 25.2302 22.4956 23.4698 23.4239 22.7382C24.3522 22.0066 25.0477 21.6741 25.0477 21.6741L24.911 23.9646C24.911 23.9646 23.8194 24.0405 23.3701 24.1827C22.9208 24.325 20.9136 25.2302 20.9136 25.2302Z" fill="#1E2316"/>
<path d="M21.3085 28.9599C21.3085 28.9599 22.8176 26.1011 23.6651 25.1894C24.5126 24.2777 25.1191 23.3202 25.1191 23.3202L27.9069 26.8166C27.9069 26.8166 26.5604 26.3613 24.6077 26.8166C22.655 27.2719 21.3085 28.9599 21.3085 28.9599Z" fill="#1E2316"/>
<path d="M27.3098 27.2628C27.3796 27.1192 26.9495 26.2947 26.9643 26.132C27.1909 26.2075 27.8702 26.524 27.963 26.7328C28.0871 27.0121 28.2196 27.2763 28.3782 27.5459C28.4615 27.6876 28.7042 27.9403 28.8495 28.0172C29.0897 28.1444 30.0171 28.3777 30.2634 28.4885C31.107 28.8681 31.3805 29.2865 32.2568 29.5678C33.8978 30.0946 35.5559 30.693 36.8735 31.8399C37.2545 32.1714 38.7853 33.3411 38.0096 33.9072C37.5938 34.2106 37.0972 34.4099 36.7018 34.7394C36.0285 35.3005 35.4095 35.9402 34.7699 36.5392C33.9459 37.3108 33.1256 38.0603 32.1544 38.6461C32.0764 38.6932 30.4528 39.605 30.4273 39.3495C30.4138 39.2148 30.8335 38.8166 30.9359 38.7088C31.3799 38.2414 31.8412 37.7442 32.1776 37.193C32.6871 36.358 32.9816 35.6977 32.9816 34.7394C32.9816 33.7837 33.0913 32.7303 33.0913 31.7877C33.0136 31.438 32.6562 30.9463 32.62 30.8451C32.5684 30.7011 32.1417 30.58 32.0971 30.5354C31.956 30.5354 31.8174 30.4826 31.6477 30.4826C31.5073 30.4826 31.4729 30.4586 31.2595 30.5354C30.6753 30.7457 30.1615 31.0887 29.6545 31.4436C28.2332 32.4385 27.0798 33.819 26.3059 35.3668C26.1949 35.5888 26.1804 35.8519 26.1804 35.4923V34.0591C26.1804 32.8191 26.1945 31.6424 26.3852 30.4165C26.4893 29.7468 26.5995 29.1191 26.8376 28.478C26.9882 28.0726 27.1204 27.6525 27.3098 27.2628Z" fill="#1E2316"/>
<path d="M38.0314 38.1664C37.8008 36.8157 37.915 35.3845 37.915 34.0152C37.915 33.7553 37.957 33.5829 38.121 33.536C38.2936 33.4867 38.5412 33.5315 38.721 33.5315C38.9847 33.5315 39.6035 33.5207 39.8495 33.6301C40.4024 33.8758 42.605 35.1148 41.4258 35.7885C41.1271 35.9593 40.9289 36.4167 40.7183 36.6752C40.1044 37.4286 39.6285 38.4742 39.3301 39.3935C39.0631 40.2158 38.7718 42.7778 38.721 41.9147C38.7077 41.6873 38.5974 41.5462 38.5553 41.3146C38.4798 40.8989 38.3277 40.4871 38.2553 40.0607C38.1485 39.432 38.139 38.797 38.0314 38.1664Z" fill="#1E2316"/>
<path fill-rule="evenodd" clip-rule="evenodd" d="M39.9074 16.3052C39.9074 16.3052 43.374 15.926 45.5952 15.926C46.3958 15.926 47.3582 15.9752 48.2618 16.0382C49.6501 16.1351 50.7636 17.0989 51.1431 18.3734C51.7758 18.6053 52.2439 19.051 52.3801 19.585C52.7237 19.4287 53.1269 19.3387 53.5582 19.3387C54.5506 19.3387 55.3945 19.8152 55.7055 20.4798C55.7478 20.4774 55.7904 20.4762 55.8333 20.4762H56.9709C58.2274 20.4762 59.246 21.4949 59.246 22.7514C59.246 23.3796 58.7367 23.8889 58.1085 23.8889H54.6958C54.0675 23.8889 53.5582 23.3796 53.5582 22.7514C52.8435 22.7514 52.2057 22.5042 51.7886 22.1176C51.2673 22.5042 50.4701 22.7514 49.5767 22.7514C48.419 22.7514 47.4228 22.3363 46.979 21.7406L46.4031 21.7766C46.46 21.8442 46.5105 21.9203 46.5595 21.9942C46.5864 22.0347 46.6129 22.0747 46.6397 22.1122C46.7804 22.3085 46.9191 22.5074 47.0584 22.7071L47.0585 22.7073C47.1795 22.8808 47.3011 23.0551 47.4248 23.2289C47.6445 23.5378 47.9073 23.8088 48.1701 24.0797L48.1701 24.0797C48.3999 24.3167 48.6297 24.5537 48.8307 24.8159C49.0862 25.1493 49.331 25.4908 49.5755 25.832L49.5755 25.832L49.5756 25.8321C49.8196 26.1725 50.0633 26.5125 50.317 26.8437C50.71 27.3565 51.5593 27.6713 52.1895 27.6959C52.3439 27.702 52.4963 27.7274 52.6502 27.7531L52.6502 27.7531C52.8298 27.7832 53.0112 27.8135 53.1997 27.8135C53.5498 27.8135 53.7288 27.6917 53.9736 27.5251C54.0176 27.4952 54.0637 27.4638 54.1134 27.4314C54.1327 27.4188 54.1742 27.3822 54.2265 27.336L54.2266 27.336C54.4156 27.1691 54.7463 26.8771 54.6892 27.1376C54.6728 27.2125 54.6421 27.2842 54.6111 27.3563C54.5727 27.4457 54.534 27.5358 54.522 27.6339C54.5183 27.6638 54.515 27.6935 54.5116 27.7232C54.4947 27.8752 54.4781 28.0239 54.4158 28.1661C54.3879 28.2298 54.3796 28.327 54.3709 28.4295V28.4295C54.3563 28.6011 54.3405 28.7878 54.2292 28.8584C54.1335 28.9191 54.0479 28.9916 53.9624 29.0641C53.8394 29.1683 53.7164 29.2726 53.5632 29.3417C53.5068 29.3671 53.4558 29.392 53.4077 29.4156C53.2217 29.5065 53.078 29.5768 52.8265 29.5768H52.0576C51.7724 29.5768 51.6612 29.5768 51.1921 29.4592C51.1373 29.4455 51.0909 29.4341 51.0509 29.4242L51.0507 29.4242C50.8268 29.3692 50.8052 29.3639 50.6289 29.2744C50.5025 29.2102 50.3981 29.0715 50.295 28.9346C50.2013 28.8101 50.1087 28.6871 50.0017 28.6233C49.8848 28.5535 49.8047 28.4332 49.725 28.3135L49.725 28.3135C49.6596 28.2153 49.5944 28.1175 49.5095 28.0486C49.1914 27.7903 48.9465 27.3732 48.7245 26.9952C48.6664 26.8962 48.6099 26.7999 48.554 26.7098C48.014 25.8393 47.5188 25.0494 46.7298 24.3718C46.5449 24.2129 46.3786 24.0313 46.2118 23.8491L46.2118 23.8491L46.2118 23.8491C46.044 23.6658 45.8757 23.482 45.6874 23.3204C45.5216 23.1779 45.3152 23.0776 45.116 22.9808L45.116 22.9808C45.0644 22.9557 45.0134 22.9309 44.9636 22.9057C44.8747 22.8606 44.7869 22.8072 44.699 22.7538C44.5392 22.6567 44.3789 22.5593 44.2107 22.5105C44.0597 22.4667 43.9054 22.3907 43.7515 22.3149L43.7514 22.3149C43.6358 22.2579 43.5203 22.201 43.4064 22.1579C43.2929 22.1149 43.183 22.0673 43.0732 22.0198C43.0496 22.0095 43.026 21.9993 43.0023 21.9891L39.9074 22.1826C39.9074 22.1826 40.4627 20.3382 39.9074 19.3387C39.3521 18.3391 37.0635 17.0635 37.0635 17.0635L39.9074 17.199V16.3052Z" fill="#1E2316"/>
<path fill-rule="evenodd" clip-rule="evenodd" d="M54.5417 25.7506C55.1877 25.7832 55.8369 25.4393 56.1804 24.8152C56.6534 23.956 56.3675 22.891 55.542 22.4366C54.8576 22.0599 54.0173 22.2209 53.4804 22.7764C53.833 22.6824 54.2018 22.7125 54.5241 22.8899C55.2625 23.2964 55.4778 24.3224 55.0048 25.1817C54.8809 25.4068 54.722 25.5981 54.5417 25.7506Z" fill="#1E2316"/>
<path fill-rule="evenodd" clip-rule="evenodd" d="M56.8148 25.4536C57.3133 25.3952 57.8559 24.9932 58.1983 24.3712C58.6767 23.5021 58.5831 22.5325 57.9893 22.2057C57.3954 21.8788 56.5262 22.3184 56.0479 23.1875C55.9785 23.3134 55.9212 23.4414 55.8757 23.5693C56.3359 22.9566 56.9167 22.6405 57.2873 22.8445C57.7327 23.0897 57.7059 23.993 57.2275 24.8621C57.1046 25.0855 56.9637 25.2848 56.8148 25.4536Z" fill="#1E2316"/>
<path d="M39.3976 21.0788C40.1474 20.0328 41.5807 20.3344 42.2036 20.6159C44.0724 21.4606 48.2736 24.4633 47.3016 24.1625C46.0866 23.7864 43.8661 23.0424 42.1825 23.3201C40.8356 23.5423 38.8635 23.6649 38.1769 24.1625C38.2714 23.5704 38.6478 22.1248 39.3976 21.0788Z" fill="#1E2316"/>
<path d="M33.6508 19.9074C31.3757 19.4523 26.2566 19.427 27.3942 22.7513C26.8254 22.7513 25.119 21.3862 25.119 20.4762C25.119 19.3386 27.3942 19.3386 30.8069 17.6322C33.537 16.2672 37.6323 16.3051 39.3386 16.4947L41.045 22.1825C39.5282 21.6137 35.9259 20.3624 33.6508 19.9074Z" fill="#1E2316"/>
<path d="M34.2196 13.6508C32.565 13.1958 29.2212 11.1861 28.5318 10.2381C28.5318 11.7549 31.3757 13.6508 33.7025 14.7884C37.1111 16.4548 37.8391 16.4947 39.3904 17.0635C40.9416 17.6323 41.9757 18.2011 45.5953 18.2011C45.4229 17.8219 44.044 15.3571 42.4928 14.7884C40.8577 14.1888 36.2879 14.2196 34.2196 13.6508Z" fill="#1E2316"/>
<path d="M47.9633 18.1239C47.1979 17.5703 46.9484 17.6345 46.6101 17.6345C45.9335 17.6345 45.3648 17.6323 45.0265 17.6323C45.0265 17.9585 46.1365 19.2004 46.9484 19.5919C47.9633 20.0812 49.2175 19.9379 48.9782 19.5919C48.6399 19.1025 48.6399 18.6132 47.9633 18.1239Z" fill="#FAFAFA"/>
<path d="M31.3757 15.3572C32.7407 15.8122 36.4947 16.4947 37.6323 16.4947C35.3571 17.6323 29.5555 19.3386 29.1005 19.3386C28.6455 19.3386 25.119 18.2011 23.9815 18.2011C24.1711 18.0115 26.3167 17.8867 26.8254 17.6323C27.963 17.0635 28.5317 17.0635 29.1005 17.0635C29.6693 17.0635 30.1243 17.5185 29.6693 17.0635C29.2143 16.6085 28.3421 14.5988 27.963 13.6508C28.5317 14.03 30.0106 14.9021 31.3757 15.3572Z" fill="#1E2316"/>
<path fill-rule="evenodd" clip-rule="evenodd" d="M50.7143 33.4125C51.2831 33.9813 52.6482 35.1189 53.5582 35.1189C54.2246 35.1189 55.2813 34.7285 56.1567 34.4051C56.7757 34.1765 57.3041 33.9813 57.5397 33.9813C57.7495 33.9813 57.5213 34.3061 57.197 34.7676C56.6422 35.5572 55.8065 36.7466 56.4021 37.394C56.529 37.5319 56.2818 37.2821 55.9402 36.9369C55.729 36.7235 55.4818 36.4737 55.2646 36.2564C55.075 37.0148 54.4683 38.5315 53.5582 38.5315C53.3594 38.5315 53.1258 38.4794 52.8726 38.3873C51.0053 35.6332 48.6546 33.7499 46.565 33.2137C48.0101 32.9618 49.9888 32.8016 50.7143 33.4125Z" fill="#1E2316"/>
<path fill-rule="evenodd" clip-rule="evenodd" d="M59.9286 35.6877C59.6799 35.6877 59.4468 35.7708 59.246 35.9159C59.0452 35.7708 58.8121 35.6877 58.5635 35.6877C57.8096 35.6877 57.1984 36.4516 57.1984 37.394C57.1984 37.5527 57.2157 37.7063 57.2482 37.8521C56.427 37.5559 55.8333 36.6988 55.8333 35.6877C55.8333 34.4312 56.7501 33.4125 57.881 33.4125C58.314 33.4125 58.7156 33.5619 59.0464 33.8167C59.2843 33.5646 59.5922 33.4125 59.9286 33.4125C60.5238 33.4125 61.03 33.8886 61.2167 34.5528C61.2422 34.551 61.2678 34.5501 61.2936 34.5501C62.0475 34.5501 62.6587 35.3141 62.6587 36.2565C62.6587 36.4559 62.6313 36.6473 62.581 36.8252C62.3936 36.1625 61.888 35.6877 61.2937 35.6877C61.045 35.6877 60.8119 35.7708 60.6111 35.9159C60.4103 35.7708 60.1772 35.6877 59.9286 35.6877Z" fill="#1E2316"/>
<path d="M57.8739 40.6837C57.8137 40.824 57.7482 40.9121 57.7022 40.9524C57.7528 40.8786 57.8112 40.7878 57.8739 40.6837C57.9555 40.4935 58.0272 40.2075 58.0272 39.8148C58.0272 38.9616 57.5397 38.1084 57.5397 37.5397C57.5397 36.9709 57.7022 36.4021 58.0272 36.4021C58.3522 36.4021 58.6772 37.2553 58.6772 38.3928C58.6772 39.1612 58.2138 40.1188 57.8739 40.6837Z" fill="#1E2316"/>
<path d="M59.5803 40.6837C59.5201 40.824 59.4545 40.9121 59.4085 40.9524C59.4591 40.8786 59.5176 40.7878 59.5803 40.6837C59.6618 40.4935 59.7336 40.2075 59.7336 39.8148C59.7336 38.9616 59.246 38.1084 59.246 37.5397C59.246 36.9709 59.4085 36.4021 59.7336 36.4021C60.0586 36.4021 60.3836 37.2553 60.3836 38.3928C60.3836 39.1612 59.9202 40.1188 59.5803 40.6837Z" fill="#1E2316"/>
<path d="M61.2866 39.6133C61.2264 39.7185 61.1609 39.7846 61.1149 39.8148C61.1655 39.7595 61.224 39.6914 61.2866 39.6133C61.3682 39.4707 61.4399 39.2562 61.4399 38.9616C61.4399 38.3217 60.9524 37.6819 60.9524 37.2553C60.9524 36.8287 61.1149 36.4021 61.4399 36.4021C61.7649 36.4021 62.09 37.042 62.09 37.8952C62.09 38.4714 61.6265 39.1897 61.2866 39.6133Z" fill="#1E2316"/>
<path fill-rule="evenodd" clip-rule="evenodd" d="M44.1439 49.4148C44.13 49.2661 44.0994 49.1146 44.0507 48.9635C43.7617 48.0666 42.9456 47.5269 42.2281 47.7582C41.9914 47.8345 41.795 47.985 41.6485 48.1848C41.4128 48.1082 41.1654 48.1006 40.9288 48.1769C40.6921 48.2531 40.4957 48.4038 40.3491 48.6035C40.1135 48.527 39.8662 48.5194 39.6295 48.5956C39.0638 48.778 38.7282 49.3851 38.7531 50.0734C38.6507 49.9195 38.5659 49.7456 38.5047 49.5558C38.2156 48.6588 38.563 47.7442 39.2805 47.513C39.3051 47.5051 39.3298 47.498 39.3546 47.4919C39.3286 46.8025 39.6644 46.1941 40.2309 46.0115C40.551 45.9083 40.8907 45.9586 41.1945 46.1256C41.4312 45.7816 41.7676 45.5162 42.1797 45.3834C43.2561 45.0365 44.4411 45.7248 44.8265 46.9208C45.1367 47.8831 44.8346 48.8809 44.1439 49.4148Z" fill="#1E2316"/>
<path d="M45.5954 52.2503C45.6957 52.3654 45.7851 52.4291 45.8413 52.4533C45.7705 52.3986 45.687 52.3301 45.5954 52.2503C45.4594 52.0943 45.3034 51.8441 45.183 51.4703C44.9213 50.6583 45.1236 49.6967 44.9491 49.1553C44.7746 48.6139 44.4455 48.1224 44.1361 48.2221C43.8268 48.3218 43.7791 49.2336 44.1281 50.3163C44.3638 51.0476 45.0986 51.8169 45.5954 52.2503Z" fill="#1E2316"/>
<path d="M43.43 52.9481C43.5303 53.0632 43.6197 53.127 43.6759 53.1512C43.6051 53.0965 43.5216 53.028 43.43 52.9481C43.294 52.7922 43.138 52.5419 43.0176 52.1682C42.7559 51.3561 42.9582 50.3945 42.7837 49.8532C42.6092 49.3118 42.2801 48.8203 41.9707 48.92C41.6614 49.0197 41.6137 49.9314 41.9627 51.0142C42.1984 51.7455 42.9332 52.5148 43.43 52.9481Z" fill="#1E2316"/>
<path d="M40.9361 52.6272C41.0257 52.7089 41.1084 52.7517 41.1614 52.7663C41.0963 52.7292 41.0197 52.6823 40.9361 52.6272C40.8148 52.5165 40.6807 52.3343 40.5904 52.054C40.3941 51.445 40.6618 50.6864 40.531 50.2804C40.4001 49.8743 40.1146 49.5182 39.8052 49.6179C39.4959 49.7176 39.3828 50.4263 39.6445 51.2383C39.8213 51.7869 40.4827 52.3283 40.9361 52.6272Z" fill="#1E2316"/>
<path fill-rule="evenodd" clip-rule="evenodd" d="M49.0145 44.1407C47.8199 45.4095 44.8134 46.0226 43.2223 46.1817C42.464 46.7505 40.8335 47.7743 40.3784 47.3192C39.8096 46.7505 40.9472 43.3378 42.6536 42.769C43.4292 42.5104 44.3223 42.6044 45.0124 42.6771C45.8406 42.7643 46.3765 42.8207 46.0663 42.2002C45.798 41.6636 45.5165 40.7053 45.2918 39.8148C46.9101 41.0161 48.1915 42.4895 49.0145 44.1407Z" fill="#1E2316"/>
</g>
<path d="M91.8721 12.9739C94.4874 13.4455 93.512 15.2891 92.5259 14.5603C92.4294 14.0458 92.0757 13.4241 91.7863 13.0275L91.8721 12.9739ZM85.4839 12.1486L87.2095 12.6738C87.1667 12.8024 87.0273 12.8989 86.7808 12.8882C86.6415 13.274 86.5021 13.6385 86.3413 14.0029C87.4132 13.5742 88.6994 12.8882 89.3532 12.4059L90.2321 13.1776V12.288L91.8721 12.4594C91.8613 12.5988 91.7649 12.7274 91.4862 12.7703C91.4648 13.7564 91.454 14.7318 91.4969 15.6535H92.1507L92.7724 14.8282C92.7724 14.8282 93.4691 15.3963 93.8978 15.7929C93.8657 15.9108 93.7478 15.9644 93.5977 15.9644H91.5183C91.5612 16.7147 91.647 17.4221 91.7863 18.0652C92.0543 17.465 92.2472 16.8754 92.3865 16.3074L93.8657 16.9076C93.8121 17.0255 93.7049 17.1005 93.4369 17.0791C93.1368 17.7972 92.7295 18.5582 92.1829 19.2764C92.3437 19.6622 92.558 19.9945 92.8046 20.2732C92.9332 20.434 92.9868 20.4232 93.0832 20.241C93.244 19.9623 93.4905 19.4264 93.662 18.9763L93.7799 18.9977L93.5441 20.8091C93.8442 21.4736 93.9086 21.8595 93.7263 22.0096C93.169 22.449 92.3865 21.9238 92.0221 21.4736C91.7327 21.1092 91.4862 20.7234 91.2825 20.2946C90.7037 20.852 90.0285 21.345 89.2246 21.7202L89.1389 21.6023C89.8677 21.0449 90.4894 20.3375 90.9824 19.5658C90.6073 18.5154 90.4251 17.3042 90.3286 15.9644H89.0317V17.3792L90.2857 17.0684L90.3072 17.1863C89.9642 17.4221 89.5462 17.69 89.0317 18.0009V20.7019C89.0317 21.5165 88.8495 22.106 87.5632 22.2132C87.5525 21.8274 87.4989 21.538 87.381 21.3557C87.2417 21.1735 87.0488 21.0342 86.5772 20.9592V20.8091C86.5772 20.8091 87.4346 20.8734 87.6383 20.8734C87.7991 20.8734 87.8419 20.7984 87.8419 20.6698V18.6976L87.0273 19.1477C86.9845 19.2871 86.8665 19.405 86.7486 19.4371L86.1377 18.0009C86.4914 17.9473 87.1131 17.8187 87.8419 17.6579V15.9644H86.3199L86.2342 15.6535H87.8419V14.0136C87.3167 14.0886 86.7701 14.153 86.2556 14.1958C86.1377 14.4638 85.9984 14.7318 85.8697 14.9997L86.2878 15.1498C86.2449 15.2462 86.1591 15.3213 85.9555 15.3534V21.8809C85.9448 21.9667 85.4517 22.2132 85.0123 22.2132H84.8086V16.6611C84.4763 17.1005 84.1119 17.4864 83.7368 17.8401L83.6081 17.7544C84.337 16.3717 85.098 14.1851 85.4839 12.1486ZM90.3072 15.6535C90.2643 15.0212 90.2536 14.3566 90.2429 13.6599L90.007 13.6063C89.7284 13.6813 89.3961 13.7564 89.0317 13.8207V15.6535H90.3072ZM110.586 12.2665L112.248 12.4166C112.216 12.5881 112.108 12.6845 111.84 12.7274L111.819 14.9568H112.687L113.33 14.2923L114.434 15.257C114.359 15.3534 114.22 15.4177 113.973 15.4499C113.898 19.6086 113.738 21.0985 113.17 21.6666C112.827 22.031 112.366 22.1811 111.808 22.1811C111.808 21.7845 111.776 21.5058 111.637 21.3343C111.487 21.1521 111.187 21.0128 110.79 20.9163L110.801 20.7662C111.144 20.8091 111.68 20.8413 111.894 20.8413C112.066 20.8413 112.162 20.7984 112.259 20.7019C112.601 20.3804 112.73 18.719 112.794 15.257H111.808C111.733 18.301 111.294 20.6055 108.507 22.1918L108.389 22.0417C109.032 21.4308 109.482 20.7662 109.804 20.0481H107.714V21.8917C107.714 21.956 107.371 22.1918 106.771 22.1918H106.567V20.0481H104.413L104.327 19.748H106.567V18.4832H105.817V18.7404C105.817 18.8155 105.484 18.9977 104.959 18.9977H104.777V15.7929L105.935 16.2538H106.567V15.4285C106.428 15.5142 106.074 15.6214 105.763 15.6214H105.581V13.96H104.455L104.37 13.6599H105.581V12.1701L107.006 12.288C106.985 12.438 106.899 12.5345 106.642 12.5774V13.6599H107.66V12.1701L109.107 12.288C109.097 12.438 109.011 12.5345 108.754 12.5774V13.6599H108.829L109.375 12.8775C109.375 12.8775 109.997 13.4134 110.351 13.7993C110.318 13.9064 110.222 13.96 110.072 13.96H108.754V15.2891C108.754 15.3856 108.271 15.5571 107.864 15.5571H107.714V16.2538H108.475L108.989 15.675L109.997 16.436C109.933 16.5217 109.825 16.586 109.611 16.6182V18.5797C109.611 18.6225 109.247 18.8155 108.7 18.8155H108.507V18.4832H107.714V19.748H108.357L108.989 18.9119C108.989 18.9119 109.525 19.3407 109.943 19.7051C110.436 18.4296 110.565 16.9505 110.586 15.257H109.632L109.536 14.9568H110.586V12.2665ZM106.642 13.96V14.8925H107.66V13.96H106.642ZM105.817 18.1831H106.567V16.5539H105.817V18.1831ZM108.507 18.1831V16.5539H107.714V18.1831H108.507ZM132.795 14.1744C132.752 14.2923 132.656 14.378 132.377 14.3673C132.077 15.2355 131.68 16.1466 131.144 17.0362C133.181 19.2228 132.506 20.8734 131.402 20.1017C131.123 19.5122 130.78 18.8476 130.362 18.1509C129.579 19.1477 128.572 20.0374 127.296 20.7019L127.189 20.5947C128.304 19.6944 129.161 18.5046 129.794 17.2613C129.108 16.2538 128.283 15.257 127.307 14.4531L127.404 14.3459C128.604 14.9676 129.547 15.5999 130.276 16.2216C130.63 15.3427 130.887 14.4638 131.059 13.6599L132.795 14.1744ZM126.975 21.7416C126.975 21.8917 126.482 22.2025 125.946 22.2025H125.732V12.363L127.071 12.9096H132.87L133.449 12.2451L134.66 13.199C134.585 13.274 134.435 13.3705 134.221 13.4134V20.8091C134.221 21.6344 133.995 22.106 132.463 22.2454C132.42 21.8595 132.345 21.5915 132.13 21.4201C131.905 21.2378 131.616 21.0985 130.951 21.002V20.852C130.951 20.852 132.388 20.9484 132.699 20.9484C132.924 20.9484 132.977 20.852 132.977 20.6912V13.2097H126.975V21.7416ZM152.453 12.3415C152.442 12.4809 152.345 12.5881 152.11 12.6202V14.4638C152.871 13.9064 153.514 13.3276 153.953 12.7917L155.336 13.8421C155.261 13.9386 155.143 13.9922 154.918 13.9172C154.21 14.4638 153.235 15.0104 152.11 15.482V16.4574C152.11 16.6289 152.163 16.6932 152.495 16.6932H153.396C153.707 16.6932 153.996 16.6932 154.135 16.6718C154.275 16.6718 154.339 16.6396 154.414 16.5325C154.543 16.3395 154.725 15.8036 154.918 15.1605H155.036L155.068 16.586C155.422 16.7361 155.507 16.8647 155.507 17.0684C155.507 17.5936 154.993 17.7008 153.256 17.7008H152.206C151.102 17.7008 150.834 17.465 150.834 16.6611V15.9537C150.234 16.1466 149.612 16.3074 148.98 16.436L148.905 16.3074C149.559 16.0287 150.212 15.6857 150.834 15.3106V12.1915L152.453 12.3415ZM154.393 18.0973C154.393 18.0973 155.186 18.7619 155.636 19.2013C155.604 19.3192 155.497 19.3728 155.336 19.3728H151.22V21.9345C151.22 22.0203 150.63 22.2454 150.116 22.2454H149.88V19.3728H145.582L145.496 19.0727H149.88V17.5614L151.574 17.7115C151.552 17.8508 151.477 17.9473 151.22 17.9902V19.0727H153.707L154.393 18.0973ZM149.966 12.7488C149.912 12.8667 149.827 12.9311 149.559 12.9311C149.323 13.3384 149.012 13.7671 148.648 14.1958L149.108 14.3673C149.076 14.4638 148.958 14.5388 148.776 14.571V17.7972C148.755 17.883 148.24 18.1188 147.747 18.1188H147.511V15.3427C146.954 15.825 146.322 16.2645 145.646 16.5968L145.55 16.5003C146.783 15.2998 147.801 13.4348 148.251 12.1165L149.966 12.7488ZM171.296 12.8024C171.521 16.9183 172.528 19.4157 176.194 20.7662L176.183 20.8949C175.529 21.0128 175.122 21.4522 174.972 22.1489C172.282 20.7341 171.478 18.2152 171.21 14.8068C171.006 17.54 170.224 20.2839 166.215 22.2025L166.097 22.0524C170.02 19.1906 169.913 15.7393 169.924 12.3308L171.681 12.5023C171.66 12.6631 171.574 12.7596 171.296 12.8024ZM194.823 13.9707C194.78 14.1101 194.694 14.1958 194.405 14.2173C194.244 14.989 194.029 15.8679 193.719 16.7575C195.026 19.0513 194.233 20.5411 193.515 19.7158C193.418 19.2656 193.311 18.7083 193.161 18.1295C192.657 19.1585 192.004 20.1446 191.114 20.927L190.996 20.8413C191.811 19.6515 192.357 18.1081 192.7 16.6075C192.443 15.8786 192.121 15.1498 191.714 14.5388L191.854 14.4531C192.261 14.8389 192.604 15.2141 192.904 15.5785C193.022 14.9032 193.108 14.2387 193.15 13.6492L194.823 13.9707ZM192.068 13.9922C192.036 14.1315 191.939 14.2173 191.65 14.2387C191.5 15.0212 191.285 15.9215 190.975 16.8326C192.089 18.6547 191.468 19.898 190.739 19.2121L190.428 18.1938C189.999 19.1049 189.431 19.9731 188.692 20.6698L188.574 20.584C189.217 19.5336 189.656 18.2045 189.935 16.8862C189.592 16.0608 189.163 15.2248 188.606 14.5495L188.724 14.4638C189.303 14.8925 189.774 15.332 190.149 15.75C190.267 15.0104 190.342 14.2923 190.385 13.6599L192.068 13.9922ZM188.499 21.7523C188.499 21.9024 188.027 22.2025 187.502 22.2025H187.298V12.3737L188.595 12.9096H194.726L195.305 12.2558L196.505 13.199C196.43 13.2848 196.28 13.3705 196.055 13.4134V20.7984C196.055 21.6237 195.841 22.106 194.329 22.2347C194.276 21.8595 194.201 21.5915 193.987 21.4201C193.761 21.2378 193.483 21.0985 192.818 21.002V20.852C192.818 20.852 194.244 20.9484 194.555 20.9484C194.78 20.9484 194.833 20.852 194.833 20.6912V13.2205H188.499V21.7523ZM210.932 15.3534C213.612 16.4253 212.358 18.4082 211.383 17.4542C211.383 16.7575 211.104 15.9751 210.825 15.407L210.932 15.3534ZM210.096 12.4487C210.096 12.4487 210.772 13.0597 211.147 13.4563C211.125 13.5742 211.007 13.6278 210.868 13.6278H209.603V16.2859H209.689L210.193 15.482C210.193 15.482 210.772 16.0394 211.082 16.4145C211.061 16.5325 210.954 16.586 210.804 16.586H209.603V18.8691C210.064 18.6869 210.536 18.4832 210.997 18.2796L211.04 18.3867C210.375 18.9977 209.378 19.8444 208.006 20.8091C207.974 20.9484 207.888 21.0771 207.76 21.1307L207.127 19.7694C207.427 19.6837 207.878 19.5229 208.414 19.33V16.586H207.417L207.331 16.2859H208.414V13.6278H207.342L207.256 13.3169H209.507L210.096 12.4487ZM214.791 12.5345C216.527 12.513 216.731 13.392 216.367 13.7778C216.613 13.9815 216.999 14.2923 217.267 14.5388C217.235 14.6567 217.128 14.7103 216.978 14.7103H214.223C214.362 15.6535 214.577 16.436 214.845 17.0791C215.188 16.4789 215.541 15.7607 215.809 15.1498L217.149 16.0823C217.063 16.1787 216.978 16.2002 216.763 16.1573C216.281 16.5432 215.584 17.0362 215.005 17.4328C215.627 18.6976 216.495 19.4264 217.438 19.9302L217.396 20.0374C216.892 20.166 216.484 20.6376 216.324 21.2593C215.08 20.0052 214.469 18.5368 214.191 15.5785V20.7877C214.191 21.6344 214.009 22.0846 212.604 22.2025C212.572 21.8381 212.519 21.5594 212.358 21.3986C212.186 21.2164 211.961 21.0878 211.425 21.002V20.852C211.425 20.852 212.497 20.9377 212.733 20.9377C212.915 20.9377 212.969 20.8841 212.969 20.7341V18.6333C212.454 19.2121 211.779 19.9302 210.9 20.7555C210.9 20.8949 210.814 21.0449 210.707 21.1092L209.785 19.8123C210.343 19.5765 211.629 18.9119 212.969 18.1831V14.7103H210.439L210.354 14.3995H212.969V12.1915L214.566 12.3523C214.544 12.5023 214.469 12.5988 214.191 12.6417V14.3995H215.477L215.831 13.9386C215.745 13.9172 215.648 13.885 215.563 13.8314C215.456 13.392 215.07 12.8775 214.705 12.6095L214.791 12.5345ZM236.485 16.0287C238.94 17.4971 237.739 19.5122 236.817 18.5154C236.882 17.7115 236.646 16.7683 236.356 16.0823L236.485 16.0287ZM231.715 15.9429C232.198 17.2613 231.983 18.2474 231.555 18.7083C231.265 19.0406 230.686 19.0298 230.472 18.644C230.301 18.301 230.461 17.9473 230.772 17.7329C231.115 17.4328 231.565 16.6825 231.565 15.9322L231.715 15.9429ZM230.686 14.4638C230.686 14.4638 231.329 14.9783 231.715 15.3427C231.683 15.4606 231.576 15.5142 231.426 15.5142H230.011V21.7738C230.011 21.9131 229.497 22.1918 229.057 22.1918H228.821V15.5142H227.814L227.728 15.2034H228.821V12.1593L230.354 12.3094C230.333 12.4487 230.258 12.5452 230.011 12.5881V15.2034H230.129L230.686 14.4638ZM234.395 12.3094C234.374 12.4702 234.266 12.5666 233.998 12.6095L233.977 14.4852H235.027L235.703 13.81L236.817 14.7961C236.742 14.8925 236.603 14.9676 236.356 14.9997C236.292 19.3407 236.153 21.0128 235.574 21.613C235.22 21.9881 234.738 22.1596 234.127 22.1596C234.127 21.7416 234.084 21.4522 233.934 21.2807C233.773 21.0878 233.43 20.9377 232.991 20.8413L233.002 20.6912C233.398 20.7341 234.009 20.7662 234.234 20.7662C234.416 20.7662 234.524 20.7341 234.62 20.6376C234.974 20.2946 235.081 18.4189 235.156 14.7961H233.966C233.87 17.8401 233.42 20.4125 230.451 22.2132L230.322 22.0739C232.326 20.0695 232.648 17.6364 232.701 14.7961H231.287L231.19 14.4852H232.701V12.1486L234.395 12.3094ZM253.785 12.9096C252.745 14.5174 250.505 16.2002 248.415 17.0469L248.34 16.9183C250.151 15.7929 252.177 13.5956 252.659 12.095L254.481 12.5452C254.438 12.6845 254.299 12.7488 253.967 12.781C254.942 14.0672 256.872 14.8818 258.533 15.3856L258.522 15.5356C258.008 15.675 257.654 16.1895 257.558 16.6396C255.95 15.8143 254.471 14.5603 253.785 12.9096ZM254.921 15.1926C254.921 15.1926 255.65 15.7286 256.089 16.1144C256.068 16.2323 255.95 16.2859 255.8 16.2859H250.826L250.741 15.9858H254.278L254.921 15.1926ZM254.556 19.0406C258.619 20.166 257.868 22.8242 256.539 22.0203C256.389 21.6773 256.186 21.3129 255.939 20.9377C254.599 21.2164 252.67 21.5594 250.355 21.9131C250.269 22.031 250.173 22.106 250.065 22.1489L249.529 20.6912C249.529 20.6912 249.797 20.6483 249.926 20.584C250.794 20.1767 252.005 18.9012 252.498 18.1081H248.983L248.886 17.8079H256.035L256.764 16.8969C256.764 16.8969 257.579 17.5078 258.083 17.9366C258.051 18.0545 257.933 18.1081 257.772 18.1081H252.799L254.128 18.8476C254.074 18.9548 253.945 19.0191 253.72 18.9763C253.045 19.555 251.791 20.2839 250.676 20.7448C251.898 20.7448 253.763 20.7126 255.746 20.6698C255.328 20.1017 254.856 19.555 254.449 19.1156L254.556 19.0406Z" fill="#FCFDFA"/>
<defs>
<clipPath id="clip0_8_2018">
<rect width="79.6296" height="79.6296" fill="white" transform="translate(0.0925903)"/>
</clipPath>
</defs>
</svg>
