<svg width="383" height="86" viewBox="0 0 383 86" fill="none" xmlns="http://www.w3.org/2000/svg">
<path d="M96.4942 55.603V35.754C96.4942 34.9547 95.9614 34.4219 95.1621 34.4219C94.3628 34.4219 93.8299 34.9547 93.8299 35.754V55.603C93.8299 56.4023 94.3628 56.9352 95.1621 56.9352C95.9614 56.9352 96.4942 56.4023 96.4942 55.603ZM91.1656 55.3366V36.0204C91.1656 33.6559 92.7975 32.024 95.1621 32.024C97.5266 32.024 99.1585 33.6559 99.1585 36.0204V55.3366C99.1585 57.7012 97.5266 59.333 95.1621 59.333C92.7975 59.333 91.1656 57.7012 91.1656 55.3366ZM101.642 59V39.0178H103.64L103.907 40.683H104.14C104.506 39.4507 105.372 38.6847 106.471 38.6847C107.936 38.6847 108.969 40.0502 108.969 42.0151V45.6785H106.305V42.3482C106.305 41.5489 105.905 41.016 105.305 41.016C104.706 41.016 104.306 41.5489 104.306 42.3482V59H101.642ZM114.448 59.333C112.084 59.333 110.452 57.7012 110.452 55.3366V42.6812C110.452 40.3166 112.084 38.6847 114.448 38.6847C116.813 38.6847 118.445 40.3166 118.445 42.6812V49.0089H113.116V55.603C113.116 56.4023 113.649 56.9352 114.448 56.9352C115.248 56.9352 115.78 56.4023 115.78 55.603V51.4068H118.445V55.3366C118.445 57.7012 116.813 59.333 114.448 59.333ZM113.116 46.611H115.78V42.4148C115.78 41.6155 115.248 41.0826 114.448 41.0826C113.649 41.0826 113.116 41.6155 113.116 42.4148V46.611ZM126.09 62.2638V57.1017H125.824C125.291 57.8677 124.458 58.3339 123.426 58.3339C121.661 58.3339 120.762 56.9685 120.762 55.0036V42.0151C120.762 40.0502 121.827 38.6847 123.593 38.6847C124.925 38.6847 125.857 39.4507 126.223 40.683H126.423L126.756 39.0178H128.755V61.9973C128.755 64.3619 127.123 65.9938 124.758 65.9938C122.394 65.9938 120.762 64.3619 120.762 61.9973V59.9325H123.426V62.2638C123.426 63.0631 123.959 63.5959 124.758 63.5959C125.557 63.5959 126.09 63.0631 126.09 62.2638ZM123.426 54.6705C123.426 55.4032 123.959 56.0027 124.758 56.0027C125.557 56.0027 126.09 55.4032 126.09 54.6705V42.3482C126.09 41.6155 125.557 41.016 124.758 41.016C123.959 41.016 123.426 41.6155 123.426 42.3482V54.6705ZM136.595 55.603V42.4148C136.595 41.6155 136.062 41.0826 135.263 41.0826C134.464 41.0826 133.931 41.6155 133.931 42.4148V55.603C133.931 56.4023 134.464 56.9352 135.263 56.9352C136.062 56.9352 136.595 56.4023 136.595 55.603ZM131.267 55.3366V42.6812C131.267 40.3166 132.899 38.6847 135.263 38.6847C137.628 38.6847 139.26 40.3166 139.26 42.6812V55.3366C139.26 57.7012 137.628 59.333 135.263 59.333C132.899 59.333 131.267 57.7012 131.267 55.3366ZM141.743 59V39.0178H143.741L144.008 40.683H144.274C144.64 39.4507 145.573 38.6847 146.905 38.6847C148.67 38.6847 149.736 40.0502 149.736 42.0151V59H147.072V42.3482C147.072 41.6155 146.539 41.016 145.739 41.016C144.94 41.016 144.407 41.6155 144.407 42.3482V59H141.743ZM162.744 43.5138V35.754C162.744 34.9547 162.211 34.4219 161.412 34.4219C160.612 34.4219 160.08 34.9547 160.08 35.754V55.603C160.08 56.4023 160.612 56.9352 161.412 56.9352C162.211 56.9352 162.744 56.4023 162.744 55.603V47.8433H165.408V55.3366C165.408 57.7012 163.776 59.333 161.412 59.333C159.047 59.333 157.415 57.7012 157.415 55.3366V36.0204C157.415 33.6559 159.047 32.024 161.412 32.024C163.776 32.024 165.408 33.6559 165.408 36.0204V43.5138H162.744ZM167.892 59V32.357H170.556V39.917H170.822C171.355 39.151 172.188 38.6847 173.22 38.6847C174.985 38.6847 175.885 40.0502 175.885 42.0151V59H173.22V42.3482C173.22 41.6155 172.687 41.016 171.888 41.016C171.089 41.016 170.556 41.6155 170.556 42.3482V59H167.892ZM178.397 59V39.0178H181.061V59H178.397ZM178.397 36.3535V33.6892H181.061V36.3535H178.397ZM183.73 59V39.0178H185.729L185.995 40.683H186.261C186.628 39.4507 187.56 38.6847 188.892 38.6847C190.658 38.6847 191.723 40.0502 191.723 42.0151V59H189.059V42.3482C189.059 41.6155 188.526 41.016 187.727 41.016C186.928 41.016 186.395 41.6155 186.395 42.3482V59H183.73ZM198.065 59.333C195.701 59.333 194.069 57.7012 194.069 55.3366V42.6812C194.069 40.3166 195.701 38.6847 198.065 38.6847C200.43 38.6847 202.062 40.3166 202.062 42.6812V49.0089H196.733V55.603C196.733 56.4023 197.266 56.9352 198.065 56.9352C198.865 56.9352 199.397 56.4023 199.397 55.603V51.4068H202.062V55.3366C202.062 57.7012 200.43 59.333 198.065 59.333ZM196.733 46.611H199.397V42.4148C199.397 41.6155 198.865 41.0826 198.065 41.0826C197.266 41.0826 196.733 41.6155 196.733 42.4148V46.611ZM207.876 59.333C205.511 59.333 203.879 57.7012 203.879 55.3366V52.0728H206.543V55.603C206.543 56.4023 207.076 56.9352 207.876 56.9352C208.675 56.9352 209.208 56.4023 209.208 55.1368C209.208 51.0737 203.879 47.6767 203.879 42.9476C203.879 40.3166 205.511 38.6847 207.876 38.6847C210.24 38.6847 211.872 40.3166 211.872 42.6812V46.0116H209.208V42.4148C209.208 41.6155 208.675 41.0826 207.876 41.0826C207.076 41.0826 206.543 41.6155 206.543 42.881C206.543 47.044 211.872 50.3077 211.872 55.0702C211.872 57.7012 210.24 59.333 207.876 59.333ZM217.709 59.333C215.345 59.333 213.713 57.7012 213.713 55.3366V42.6812C213.713 40.3166 215.345 38.6847 217.709 38.6847C220.074 38.6847 221.706 40.3166 221.706 42.6812V49.0089H216.377V55.603C216.377 56.4023 216.91 56.9352 217.709 56.9352C218.509 56.9352 219.041 56.4023 219.041 55.603V51.4068H221.706V55.3366C221.706 57.7012 220.074 59.333 217.709 59.333ZM216.377 46.611H219.041V42.4148C219.041 41.6155 218.509 41.0826 217.709 41.0826C216.91 41.0826 216.377 41.6155 216.377 42.4148V46.611ZM230.855 59V34.7549H228.524V32.357H235.851V34.7549H233.519V59H230.855ZM239.695 59.333C237.33 59.333 235.698 57.7012 235.698 55.3366V42.6812C235.698 40.3166 237.33 38.6847 239.695 38.6847C242.059 38.6847 243.691 40.3166 243.691 42.6812V49.0089H238.363V55.603C238.363 56.4023 238.896 56.9352 239.695 56.9352C240.494 56.9352 241.027 56.4023 241.027 55.603V51.4068H243.691V55.3366C243.691 57.7012 242.059 59.333 239.695 59.333ZM238.363 46.611H241.027V42.4148C241.027 41.6155 240.494 41.0826 239.695 41.0826C238.896 41.0826 238.363 41.6155 238.363 42.4148V46.611ZM246.175 59V39.0178H248.173L248.439 40.683H248.706C249.072 39.4507 250.005 38.6847 251.337 38.6847C253.102 38.6847 254.168 40.0502 254.168 42.0151V59H251.503V42.3482C251.503 41.6155 250.971 41.016 250.171 41.016C249.372 41.016 248.839 41.6155 248.839 42.3482V59H246.175ZM256.68 59V39.0178H258.678L258.944 40.683H259.211C259.577 39.4507 260.51 38.6847 261.842 38.6847C263.607 38.6847 264.673 40.0502 264.673 42.0151V59H262.008V42.3482C262.008 41.6155 261.476 41.016 260.676 41.016C259.877 41.016 259.344 41.6155 259.344 42.3482V59H256.68ZM267.185 59V39.0178H269.849V59H267.185ZM267.185 36.3535V33.6892H269.849V36.3535H267.185ZM275.849 59.333C273.484 59.333 271.853 57.7012 271.853 55.3366V52.0728H274.517V55.603C274.517 56.4023 275.05 56.9352 275.849 56.9352C276.648 56.9352 277.181 56.4023 277.181 55.1368C277.181 51.0737 271.853 47.6767 271.853 42.9476C271.853 40.3166 273.484 38.6847 275.849 38.6847C278.214 38.6847 279.845 40.3166 279.845 42.6812V46.0116H277.181V42.4148C277.181 41.6155 276.648 41.0826 275.849 41.0826C275.05 41.0826 274.517 41.6155 274.517 42.881C274.517 47.044 279.845 50.3077 279.845 55.0702C279.845 57.7012 278.214 59.333 275.849 59.333ZM286.187 59L288.752 32.357H292.482L295.046 59H292.382L291.816 51.873H289.418L288.852 59H286.187ZM289.618 49.4751H291.616C290.883 39.7505 290.717 35.421 290.717 34.7549H290.517C290.517 35.421 290.35 39.7505 289.618 49.4751ZM300.046 59.333C297.682 59.333 296.05 57.7012 296.05 55.3366V52.0728H298.714V55.603C298.714 56.4023 299.247 56.9352 300.046 56.9352C300.845 56.9352 301.378 56.4023 301.378 55.1368C301.378 51.0737 296.05 47.6767 296.05 42.9476C296.05 40.3166 297.682 38.6847 300.046 38.6847C302.411 38.6847 304.043 40.3166 304.043 42.6812V46.0116H301.378V42.4148C301.378 41.6155 300.845 41.0826 300.046 41.0826C299.247 41.0826 298.714 41.6155 298.714 42.881C298.714 47.044 304.043 50.3077 304.043 55.0702C304.043 57.7012 302.411 59.333 300.046 59.333ZM309.38 59.333C307.016 59.333 305.384 57.7012 305.384 55.3366V52.0728H308.048V55.603C308.048 56.4023 308.581 56.9352 309.38 56.9352C310.18 56.9352 310.712 56.4023 310.712 55.1368C310.712 51.0737 305.384 47.6767 305.384 42.9476C305.384 40.3166 307.016 38.6847 309.38 38.6847C311.745 38.6847 313.377 40.3166 313.377 42.6812V46.0116H310.712V42.4148C310.712 41.6155 310.18 41.0826 309.38 41.0826C308.581 41.0826 308.048 41.6155 308.048 42.881C308.048 47.044 313.377 50.3077 313.377 55.0702C313.377 57.7012 311.745 59.333 309.38 59.333ZM320.546 55.603V42.4148C320.546 41.6155 320.013 41.0826 319.214 41.0826C318.415 41.0826 317.882 41.6155 317.882 42.4148V55.603C317.882 56.4023 318.415 56.9352 319.214 56.9352C320.013 56.9352 320.546 56.4023 320.546 55.603ZM315.218 55.3366V42.6812C315.218 40.3166 316.849 38.6847 319.214 38.6847C321.579 38.6847 323.21 40.3166 323.21 42.6812V55.3366C323.21 57.7012 321.579 59.333 319.214 59.333C316.849 59.333 315.218 57.7012 315.218 55.3366ZM328.192 55.603C328.192 56.4023 328.725 56.9352 329.524 56.9352C330.323 56.9352 330.856 56.4023 330.856 55.603V50.341H333.52V55.3366C333.52 57.7012 331.888 59.333 329.524 59.333C327.159 59.333 325.527 57.7012 325.527 55.3366V42.6812C325.527 40.3166 327.159 38.6847 329.524 38.6847C331.888 38.6847 333.52 40.3166 333.52 42.6812V47.6767H330.856V42.4148C330.856 41.6155 330.323 41.0826 329.524 41.0826C328.725 41.0826 328.192 41.6155 328.192 42.4148V55.603ZM336.004 59V39.0178H338.668V59H336.004ZM336.004 36.3535V33.6892H338.668V36.3535H336.004ZM346.999 59L346.666 57.3348H346.466C346.1 58.5671 345.167 59.333 343.835 59.333C342.07 59.333 341.005 57.9676 341.005 56.0027V48.6759C341.005 46.7109 341.904 45.3455 343.669 45.3455C344.701 45.3455 345.534 45.8117 346.067 46.5777H346.333V42.4148C346.333 41.6155 345.8 41.0826 345.001 41.0826C344.202 41.0826 343.669 41.6155 343.669 42.4148V43.7469H341.005V42.6812C341.005 40.3166 342.636 38.6847 345.001 38.6847C347.366 38.6847 348.997 40.3166 348.997 42.6812V59H346.999ZM343.669 55.6696C343.669 56.4023 344.202 57.0018 345.001 57.0018C345.8 57.0018 346.333 56.4023 346.333 55.6696V49.0089C346.333 48.2762 345.8 47.6767 345.001 47.6767C344.202 47.6767 343.669 48.2762 343.669 49.0089V55.6696ZM354.149 55.27C354.149 56.0693 354.682 56.6021 355.481 56.6021H356.147V59H355.148C352.983 59 351.485 57.5013 351.485 55.3366V41.4156H350.486V39.0178H351.818L352.484 35.6874H354.149V39.0178H356.147V41.4156H354.149V55.27ZM357.827 59V39.0178H360.491V59H357.827ZM357.827 36.3535V33.6892H360.491V36.3535H357.827ZM368.323 55.603V42.4148C368.323 41.6155 367.79 41.0826 366.991 41.0826C366.191 41.0826 365.658 41.6155 365.658 42.4148V55.603C365.658 56.4023 366.191 56.9352 366.991 56.9352C367.79 56.9352 368.323 56.4023 368.323 55.603ZM362.994 55.3366V42.6812C362.994 40.3166 364.626 38.6847 366.991 38.6847C369.355 38.6847 370.987 40.3166 370.987 42.6812V55.3366C370.987 57.7012 369.355 59.333 366.991 59.333C364.626 59.333 362.994 57.7012 362.994 55.3366ZM373.47 59V39.0178H375.469L375.735 40.683H376.002C376.368 39.4507 377.3 38.6847 378.632 38.6847C380.398 38.6847 381.463 40.0502 381.463 42.0151V59H378.799V42.3482C378.799 41.6155 378.266 41.016 377.467 41.016C376.668 41.016 376.135 41.6155 376.135 42.3482V59H373.47Z" fill="#171F23"/>
<g clip-path="url(#clip0_8_2098)">
<path d="M36.848 76.4187C35.1121 75.0708 34.5318 72.5334 34.4586 71.4331C31.9042 70.8408 27.6193 69.6701 30.9154 69.7253C35.0356 69.7943 39.2018 67.1164 41.9485 67.1624C44.146 67.1992 46.3189 68.701 47.1306 69.4472C46.3997 69.3434 44.6631 69.1312 43.5644 69.1128C42.4657 69.0944 40.8908 70.167 40.2407 70.7057C41.2448 70.9056 43.7931 71.8642 45.9538 74.0984C48.6546 76.8911 50.9979 84.6235 49.6705 81.8537C48.3431 79.084 41.0141 73.7409 42.0991 74.5833C43.184 75.4258 45.2389 83.9776 43.9114 81.2078C42.584 78.438 37.7134 73.9604 38.2444 75.0683L40.1027 78.946L36.848 76.4187Z" fill="#1E2316"/>
<path d="M26.3563 63.0548C27.2611 61.5313 25.6714 60.2042 24.7634 59.7311L33.0728 55.7489C33.2344 57.0337 32.8838 60.4715 30.188 63.9432C26.8183 68.2829 29.5421 69.7023 33.1083 70.0367C35.9613 70.3043 40.5794 72.3599 42.3876 73.7639C40.7564 72.7292 38.0249 71.7676 34.1703 72.2526C29.9039 72.7893 25.9299 72.1146 24.6025 69.3448C23.4152 66.8675 25.2254 64.9592 26.3563 63.0548Z" fill="#1E2316"/>
<circle cx="42.3857" cy="39.9286" r="27.6429" fill="#D0F04F"/>
<mask id="mask0_8_2098" style="mask-type:alpha" maskUnits="userSpaceOnUse" x="14" y="17" width="50" height="50">
<path fill-rule="evenodd" clip-rule="evenodd" d="M63.8857 41.7714C63.8857 55.3419 52.8847 66.3429 39.3143 66.3429C25.7439 66.3429 14.7429 55.3419 14.7429 41.7714C14.7429 28.201 25.7439 17.2 39.3143 17.2C52.8847 17.2 63.8857 28.201 63.8857 41.7714ZM54.0565 51.694C52.0965 59.1434 41.6763 62.8588 30.7824 59.9925C19.8884 57.1262 13.3972 47.3779 15.3572 39.9286L15.5968 39.3868C17.9161 34.1396 21.9705 24.9671 25.8 23.9571C27.6429 27.0286 30.1 30.7143 38.0857 35.0143C38.4455 35.208 38.8093 35.4031 39.1758 35.5995C46.9435 39.7637 55.9281 44.5803 54.0565 51.694ZM55.3954 40.6323C55.749 40.9958 56.1162 41.3733 56.5143 41.7714C60.8143 32.5571 58.4554 22.3594 48.7116 20.1264C38.9678 17.8935 30.378 19.0978 29.5258 22.8164C28.8533 25.751 34.191 28.2075 40.0946 30.9244C41.6716 31.6501 43.2889 32.3945 44.8429 33.1714C51.2588 36.3794 53.0212 38.1913 55.3954 40.6323Z" fill="#D9D9D9"/>
</mask>
<g mask="url(#mask0_8_2098)">
<ellipse cx="40.928" cy="26.8089" rx="16.0006" ry="9.31452" transform="rotate(8.1183 40.928 26.8089)" fill="#1E2316"/>
<ellipse cx="40.9281" cy="26.8089" rx="16.0006" ry="9.31452" transform="rotate(8.1183 40.9281 26.8089)" fill="#1E2316"/>
<ellipse cx="37.6581" cy="49.9983" rx="21.5557" ry="17.9203" transform="rotate(9.2015 37.6581 49.9983)" fill="#1E2316"/>
</g>
<path d="M22.0785 24.4281C22.0785 24.4281 24.2813 23.1312 25.4755 22.6806C26.6698 22.2299 27.4943 22.1143 27.4943 22.1143L26.6069 24.4281C26.6069 24.4281 25.4583 24.1504 24.9493 24.1504C24.4402 24.1504 22.0785 24.4281 22.0785 24.4281Z" fill="#1E2316"/>
<path d="M22.4867 27.2486C22.4867 27.2486 24.1952 25.3474 25.1977 24.5573C26.2003 23.7672 26.9514 23.408 26.9514 23.408L26.8038 25.8817C26.8038 25.8817 25.6249 25.9637 25.1396 26.1173C24.6544 26.271 22.4867 27.2486 22.4867 27.2486Z" fill="#1E2316"/>
<path d="M22.9132 31.2766C22.9132 31.2766 24.543 28.1891 25.4582 27.2044C26.3735 26.2198 27.0286 25.1857 27.0286 25.1857L30.0394 28.9619C30.0394 28.9619 28.5852 28.4702 26.4763 28.9619C24.3673 29.4536 22.9132 31.2766 22.9132 31.2766Z" fill="#1E2316"/>
<path d="M29.3946 29.4437C29.47 29.2887 29.0054 28.3982 29.0213 28.2225C29.2661 28.3041 29.9998 28.6459 30.1 28.8714C30.234 29.173 30.3771 29.4583 30.5484 29.7495C30.6384 29.9025 30.9005 30.1755 31.0574 30.2585C31.3168 30.3959 32.3184 30.6478 32.5845 30.7676C33.4955 31.1775 33.7909 31.6294 34.7373 31.9332C36.5095 32.5021 38.3003 33.1484 39.7234 34.387C40.1348 34.7451 41.788 36.0084 40.9503 36.6197C40.5012 36.9474 39.9649 37.1626 39.5379 37.5185C38.8107 38.1245 38.1422 38.8154 37.4515 39.4623C36.5616 40.2957 35.6756 41.1051 34.6267 41.7377C34.5425 41.7886 32.789 42.7734 32.7614 42.4974C32.7469 42.352 33.2001 41.9219 33.3107 41.8055C33.7902 41.3007 34.2885 40.7637 34.6517 40.1684C35.202 39.2666 35.5201 38.5535 35.5201 37.5185C35.5201 36.4863 35.6385 35.3487 35.6385 34.3307C35.5546 33.953 35.1687 33.422 35.1295 33.3126C35.0739 33.1571 34.613 33.0264 34.5648 32.9782C34.4124 32.9782 34.2628 32.9212 34.0795 32.9212C33.9278 32.9212 33.8907 32.8952 33.6602 32.9782C33.0293 33.2053 32.4743 33.5758 31.9268 33.959C30.3918 35.0336 29.1462 36.5245 28.3103 38.1961C28.1905 38.4359 28.1748 38.72 28.1748 38.3317V36.7838C28.1748 35.4446 28.19 34.1738 28.3959 32.8498C28.5084 32.1265 28.6274 31.4486 28.8846 30.7562C29.0472 30.3183 29.19 29.8646 29.3946 29.4437Z" fill="#1E2316"/>
<path d="M40.9739 41.2198C40.7248 39.7609 40.8482 38.2153 40.8482 36.7364C40.8482 36.4558 40.8936 36.2695 41.0706 36.2189C41.2571 36.1656 41.5245 36.2141 41.7187 36.2141C42.0035 36.2141 42.6718 36.2024 42.9375 36.3205C43.5346 36.5859 45.9134 37.9239 44.6399 38.6516C44.3173 38.836 44.1032 39.3301 43.8758 39.6092C43.2128 40.4229 42.6988 41.5521 42.3765 42.5449C42.0881 43.433 41.7735 46.2 41.7187 45.2678C41.7043 45.0223 41.5852 44.8698 41.5398 44.6198C41.4581 44.1708 41.2939 43.726 41.2157 43.2656C41.1004 42.5866 41.0902 41.9008 40.9739 41.2198Z" fill="#1E2316"/>
<path fill-rule="evenodd" clip-rule="evenodd" d="M43 17.6095C43 17.6095 46.7439 17.2 49.1429 17.2C50.0075 17.2 51.0469 17.2532 52.0228 17.3213C53.5221 17.4258 54.7247 18.4668 55.1345 19.8433C55.8179 20.0937 56.3234 20.575 56.4705 21.1517C56.8416 20.9829 57.2771 20.8857 57.7429 20.8857C58.8146 20.8857 59.7261 21.4003 60.062 22.1181C60.1077 22.1156 60.1537 22.1143 60.2 22.1143H61.4286C62.7856 22.1143 63.8857 23.2144 63.8857 24.5714C63.8857 25.2499 63.3357 25.8 62.6572 25.8H58.9714C58.2929 25.8 57.7429 25.2499 57.7429 24.5714C56.971 24.5714 56.2822 24.3045 55.8318 23.887C55.2687 24.3045 54.4077 24.5714 53.4429 24.5714C52.1925 24.5714 51.1166 24.1231 50.6374 23.4798L50.0154 23.5187C50.0769 23.5917 50.1313 23.6738 50.1843 23.7536C50.2133 23.7975 50.2419 23.8406 50.2709 23.8811C50.4229 24.0932 50.5727 24.308 50.7232 24.5238C50.8539 24.7113 50.9852 24.8994 51.1187 25.0872C51.3561 25.4207 51.6399 25.7134 51.9237 26.006L51.9237 26.006C52.1719 26.262 52.4201 26.5179 52.6371 26.8011C52.9131 27.1612 53.1775 27.5301 53.4416 27.8985C53.7051 28.2662 53.9683 28.6334 54.2424 28.9911C54.6668 29.5449 55.5841 29.885 56.2646 29.9115C56.4314 29.918 56.5961 29.9456 56.7622 29.9733C56.9562 30.0057 57.1522 30.0385 57.3557 30.0385C57.7338 30.0385 57.9272 29.9069 58.1915 29.7271C58.239 29.6948 58.2889 29.6609 58.3425 29.6259C58.3634 29.6122 58.4082 29.5727 58.4647 29.5228C58.6688 29.3425 59.026 29.0272 58.9644 29.3085C58.9467 29.3895 58.9135 29.4668 58.88 29.5447C58.8386 29.6413 58.7968 29.7386 58.7837 29.8445C58.7798 29.8768 58.7762 29.9089 58.7726 29.9409V29.9409C58.7543 30.1052 58.7363 30.2658 58.6691 30.4194C58.6389 30.4882 58.63 30.5931 58.6206 30.7038C58.6049 30.8891 58.5877 31.0908 58.4675 31.167C58.3642 31.2326 58.2718 31.3109 58.1794 31.3891C58.0466 31.5017 57.9138 31.6143 57.7483 31.6889C57.6874 31.7164 57.6323 31.7433 57.5803 31.7688C57.3794 31.867 57.2242 31.9429 56.9526 31.9429H56.1222C55.8143 31.9429 55.6941 31.9429 55.1875 31.8159C55.1282 31.801 55.078 31.7887 55.0348 31.7781C54.793 31.7186 54.7697 31.7129 54.5793 31.6163C54.4427 31.547 54.3299 31.3972 54.2186 31.2493C54.1174 31.1149 54.0174 30.982 53.9019 30.9131C53.7756 30.8377 53.6891 30.7078 53.603 30.5786C53.5323 30.4725 53.462 30.3669 53.3703 30.2924C53.0267 30.0135 52.7622 29.563 52.5225 29.1547C52.4597 29.0478 52.3987 28.9438 52.3383 28.8465C51.7552 27.9064 51.2204 27.0533 50.3682 26.3215C50.1685 26.1499 49.9889 25.9537 49.8087 25.757C49.6275 25.5591 49.4458 25.3605 49.2425 25.1859C49.0633 25.0321 48.8405 24.9238 48.6253 24.8192C48.5696 24.7921 48.5144 24.7653 48.4607 24.738C48.3647 24.6893 48.2699 24.6317 48.1749 24.574C48.0023 24.4692 47.8292 24.364 47.6476 24.3113C47.4845 24.264 47.3179 24.1819 47.1516 24.1L47.1516 24.1C47.0267 24.0385 46.9019 23.977 46.779 23.9305C46.6564 23.884 46.5377 23.8326 46.4191 23.7813L46.4191 23.7813C46.3936 23.7703 46.3681 23.7592 46.3426 23.7482L43 23.9571C43 23.9571 43.5998 21.9652 43 20.8857C42.4003 19.8062 39.9286 18.4286 39.9286 18.4286L43 18.5748V17.6095Z" fill="#1E2316"/>
<path fill-rule="evenodd" clip-rule="evenodd" d="M58.8052 27.8107C59.5028 27.8458 60.204 27.4744 60.5749 26.8004C61.0857 25.8725 60.777 24.7223 59.8854 24.2315C59.1463 23.8247 58.2387 23.9986 57.6589 24.5986C58.0397 24.497 58.438 24.5295 58.7861 24.7211C59.5836 25.1601 59.8161 26.2683 59.3053 27.1962C59.1714 27.4394 58.9999 27.646 58.8052 27.8107Z" fill="#1E2316"/>
<path fill-rule="evenodd" clip-rule="evenodd" d="M61.26 27.4899C61.7984 27.4267 62.3844 26.9926 62.7542 26.3208C63.2708 25.3821 63.1698 24.3351 62.5285 23.982C61.8871 23.629 60.9484 24.1038 60.4317 25.0424C60.3569 25.1784 60.295 25.3166 60.2459 25.4547C60.7429 24.793 61.3701 24.4517 61.7704 24.672C62.2514 24.9368 62.2225 25.9123 61.7058 26.851C61.573 27.0922 61.4209 27.3075 61.26 27.4899Z" fill="#1E2316"/>
<path d="M42.4495 22.7651C43.2592 21.6353 44.8072 21.9611 45.4799 22.2652C47.4982 23.1774 52.0354 26.4204 50.9857 26.0955C49.6735 25.6893 47.2754 24.8858 45.4571 25.1857C44.0025 25.4257 41.8725 25.5581 41.1311 26.0955C41.2331 25.4561 41.6397 23.8948 42.4495 22.7651Z" fill="#1E2316"/>
<path d="M36.2429 21.5C33.7857 21.0086 28.2571 20.9812 29.4857 24.5714C28.8714 24.5714 27.0286 23.0971 27.0286 22.1143C27.0286 20.8857 29.4857 20.8857 33.1714 19.0429C36.12 17.5686 40.5429 17.6095 42.3857 17.8143L44.2286 23.9571C42.5905 23.3429 38.7 21.9914 36.2429 21.5Z" fill="#1E2316"/>
<path d="M36.8572 14.7429C35.0701 14.2514 31.4589 12.081 30.7143 11.0571C30.7143 12.6952 33.7857 14.7429 36.2987 15.9714C39.9799 17.7711 40.7662 17.8143 42.4416 18.4286C44.1169 19.0429 45.2338 19.6571 49.1429 19.6571C48.9567 19.2476 47.4675 16.5857 45.7922 15.9714C44.0263 15.3239 39.0909 15.3571 36.8572 14.7429Z" fill="#1E2316"/>
<path d="M51.7004 19.5738C50.8737 18.9759 50.6043 19.0453 50.2389 19.0453C49.5082 19.0453 48.8939 19.0429 48.5286 19.0429C48.5286 19.3952 49.7274 20.7364 50.6043 21.1592C51.7004 21.6877 53.0548 21.5329 52.7965 21.1592C52.4311 20.6308 52.4311 20.1023 51.7004 19.5738Z" fill="#FAFAFA"/>
<path d="M33.7857 16.5857C35.26 17.0771 39.3143 17.8143 40.5428 17.8143C38.0857 19.0429 31.82 20.8857 31.3286 20.8857C30.8371 20.8857 27.0286 19.6571 25.8 19.6571C26.0047 19.4524 28.322 19.3176 28.8714 19.0429C30.1 18.4286 30.7143 18.4286 31.3286 18.4286C31.9428 18.4286 32.4343 18.92 31.9428 18.4286C31.4514 17.9371 30.5095 15.7667 30.1 14.7429C30.7143 15.1524 32.3114 16.0943 33.7857 16.5857Z" fill="#1E2316"/>
<path fill-rule="evenodd" clip-rule="evenodd" d="M54.6715 36.0855C55.2857 36.6998 56.76 37.9284 57.7429 37.9284C58.4626 37.9284 59.6038 37.5068 60.5493 37.1576C61.2178 36.9106 61.7884 36.6998 62.0429 36.6998C62.2695 36.6998 62.023 37.0507 61.6728 37.5491C61.0736 38.4018 60.171 39.6864 60.8143 40.3855C60.9513 40.5345 60.6843 40.2647 60.3154 39.8918C60.0874 39.6614 59.8204 39.3916 59.5857 39.157C59.381 39.976 58.7257 41.6141 57.7429 41.6141C57.5281 41.6141 57.2759 41.5578 57.0025 41.4583C54.9857 38.4839 52.447 36.4499 50.1902 35.8708C51.7509 35.5988 53.8879 35.4257 54.6715 36.0855Z" fill="#1E2316"/>
<path fill-rule="evenodd" clip-rule="evenodd" d="M64.6229 38.5427C64.3543 38.5427 64.1026 38.6324 63.8857 38.7892C63.6689 38.6324 63.4171 38.5427 63.1486 38.5427C62.3344 38.5427 61.6743 39.3678 61.6743 40.3855C61.6743 40.5569 61.693 40.7228 61.728 40.8803C60.8412 40.5604 60.2 39.6347 60.2 38.5427C60.2 37.1857 61.1901 36.0856 62.4114 36.0856C62.8791 36.0856 63.3128 36.2468 63.6701 36.5221C63.927 36.2498 64.2596 36.0855 64.6229 36.0855C65.2657 36.0855 65.8124 36.5997 66.0141 37.317C66.0416 37.3151 66.0693 37.3141 66.0971 37.3141C66.9113 37.3141 67.5714 38.1392 67.5714 39.157C67.5714 39.3723 67.5418 39.5791 67.4875 39.7712C67.2851 39.0555 66.7391 38.5427 66.0972 38.5427C65.8286 38.5427 65.5769 38.6324 65.36 38.7892C65.1432 38.6324 64.8914 38.5427 64.6229 38.5427Z" fill="#1E2316"/>
<path d="M62.4038 43.9384C62.3388 44.0899 62.268 44.1851 62.2184 44.2286C62.273 44.1489 62.3361 44.0508 62.4038 43.9384C62.4919 43.733 62.5694 43.4241 62.5694 43C62.5694 42.0786 62.0428 41.1571 62.0428 40.5429C62.0428 39.9286 62.2184 39.3143 62.5694 39.3143C62.9204 39.3143 63.2714 40.2357 63.2714 41.4643C63.2714 42.2941 62.7709 43.3284 62.4038 43.9384Z" fill="#1E2316"/>
<path d="M64.2467 43.9384C64.1817 44.0899 64.1109 44.1851 64.0613 44.2286C64.1159 44.1489 64.179 44.0508 64.2467 43.9384C64.3348 43.733 64.4123 43.4241 64.4123 43C64.4123 42.0786 63.8857 41.1571 63.8857 40.5429C63.8857 39.9286 64.0613 39.3143 64.4123 39.3143C64.7633 39.3143 65.1143 40.2357 65.1143 41.4643C65.1143 42.2941 64.6138 43.3284 64.2467 43.9384Z" fill="#1E2316"/>
<path d="M66.0896 42.7824C66.0246 42.896 65.9538 42.9674 65.9041 43C65.9587 42.9402 66.0219 42.8667 66.0896 42.7824C66.1776 42.6283 66.2551 42.3967 66.2551 42.0786C66.2551 41.3875 65.7286 40.6964 65.7286 40.2357C65.7286 39.775 65.9041 39.3143 66.2551 39.3143C66.6061 39.3143 66.9571 40.0054 66.9571 40.9268C66.9571 41.5492 66.4567 42.3248 66.0896 42.7824Z" fill="#1E2316"/>
<path fill-rule="evenodd" clip-rule="evenodd" d="M47.5754 53.3679C47.5604 53.2074 47.5273 53.0437 47.4748 52.8806C47.1626 51.9119 46.2812 51.3291 45.5063 51.5789C45.2507 51.6612 45.0386 51.8239 44.8803 52.0396C44.6258 51.9569 44.3586 51.9487 44.103 52.0311C43.8474 52.1135 43.6354 52.2761 43.4771 52.4919C43.2226 52.4091 42.9554 52.4009 42.6998 52.4833C42.0888 52.6802 41.7264 53.3358 41.7533 54.0792C41.6427 53.913 41.5511 53.7252 41.485 53.5202C41.1728 52.5515 41.548 51.5637 42.323 51.314C42.3495 51.3054 42.3761 51.2979 42.4029 51.2912C42.3749 50.5467 42.7375 49.8896 43.3493 49.6924C43.695 49.581 44.0619 49.6353 44.39 49.8156C44.6456 49.4441 45.009 49.1575 45.4541 49.0141C46.6165 48.6394 47.8964 49.3828 48.3126 50.6744C48.6476 51.7138 48.3213 52.7914 47.5754 53.3679Z" fill="#1E2316"/>
<path d="M49.143 56.4302C49.2514 56.5546 49.3479 56.6234 49.4086 56.6496C49.3321 56.5905 49.2419 56.5165 49.143 56.4302C48.9962 56.2618 48.8277 55.9916 48.6976 55.5879C48.415 54.7109 48.6335 53.6724 48.445 53.0877C48.2566 52.503 47.9011 51.9722 47.567 52.0799C47.2329 52.1875 47.1815 53.1722 47.5583 54.3416C47.8129 55.1314 48.6065 55.9623 49.143 56.4302Z" fill="#1E2316"/>
<path d="M46.8043 57.184C46.9127 57.3083 47.0093 57.3771 47.0699 57.4033C46.9934 57.3442 46.9033 57.2703 46.8043 57.184C46.6575 57.0155 46.489 56.7453 46.3589 56.3416C46.0763 55.4646 46.2948 54.4261 46.1064 53.8414C45.9179 53.2567 45.5624 52.7259 45.2283 52.8336C44.8942 52.9413 44.8428 53.9259 45.2197 55.0953C45.4742 55.8851 46.2678 56.716 46.8043 57.184Z" fill="#1E2316"/>
<path d="M44.111 56.8374C44.2077 56.9257 44.297 56.9719 44.3543 56.9877C44.2839 56.9475 44.2013 56.8969 44.111 56.8374C43.9799 56.7178 43.8351 56.5211 43.7375 56.2183C43.5256 55.5606 43.8147 54.7413 43.6734 54.3028C43.5321 53.8643 43.2237 53.4796 42.8896 53.5873C42.5555 53.695 42.4334 54.4604 42.716 55.3374C42.907 55.9298 43.6212 56.5146 44.111 56.8374Z" fill="#1E2316"/>
<path fill-rule="evenodd" clip-rule="evenodd" d="M52.8357 47.6719C51.5455 49.0422 48.2985 49.7043 46.5802 49.8762C45.7611 50.4904 44.0002 51.5962 43.5087 51.1047C42.8944 50.4904 44.123 46.8047 45.9659 46.1904C46.8035 45.9112 47.7681 46.0128 48.5135 46.0912C49.4079 46.1854 49.9867 46.2463 49.6516 45.5762C49.3619 44.9967 49.0579 43.9618 48.8152 43C50.563 44.2974 51.9468 45.8887 52.8357 47.6719Z" fill="#1E2316"/>
</g>
<path d="M99.1218 15.0518C101.946 15.5612 100.893 17.5522 99.8279 16.7651C99.7238 16.2094 99.3418 15.538 99.0292 15.1097L99.1218 15.0518ZM92.2226 14.1605L94.0863 14.7277C94.04 14.8666 93.8895 14.9708 93.6233 14.9592C93.4728 15.376 93.3223 15.7695 93.1486 16.1631C94.3062 15.7001 95.6953 14.9592 96.4015 14.4383L97.3507 15.2718V14.311L99.1218 14.4962C99.1102 14.6467 99.0061 14.7856 98.7051 14.8319C98.6819 15.8969 98.6704 16.9503 98.7167 17.9458H99.4228L100.094 17.0545C100.094 17.0545 100.847 17.668 101.31 18.0963C101.275 18.2236 101.148 18.2815 100.986 18.2815H98.7398C98.7861 19.0918 98.8787 19.8558 99.0292 20.5504C99.3186 19.9021 99.527 19.2655 99.6775 18.6519L101.275 19.3002C101.217 19.4275 101.101 19.5086 100.812 19.4854C100.488 20.261 100.048 21.0829 99.4575 21.8585C99.6311 22.2752 99.8627 22.634 100.129 22.935C100.268 23.1087 100.326 23.0971 100.43 22.9003C100.604 22.5993 100.87 22.0205 101.055 21.5343L101.182 21.5575L100.928 23.5138C101.252 24.2315 101.321 24.6483 101.124 24.8103C100.522 25.2849 99.6775 24.7177 99.2839 24.2315C98.9713 23.8379 98.7051 23.4212 98.4851 22.9582C97.86 23.5601 97.1308 24.0926 96.2626 24.4978L96.17 24.3704C96.9571 23.7685 97.6285 23.0045 98.161 22.171C97.7559 21.0366 97.5591 19.7285 97.4549 18.2815H96.0542V19.8095L97.4086 19.4738L97.4317 19.6012C97.0613 19.8558 96.6098 20.1452 96.0542 20.4809V23.3981C96.0542 24.2778 95.8574 24.9145 94.4683 25.0303C94.4567 24.6135 94.3988 24.301 94.2715 24.1042C94.121 23.9074 93.9127 23.7569 93.4033 23.6759V23.5138C93.4033 23.5138 94.3294 23.5833 94.5493 23.5833C94.723 23.5833 94.7693 23.5022 94.7693 23.3633V21.2334L93.8895 21.7195C93.8432 21.87 93.7159 21.9974 93.5885 22.0321L92.9287 20.4809C93.3107 20.423 93.9821 20.2841 94.7693 20.1105V18.2815H93.1255L93.0329 17.9458H94.7693V16.1747C94.2021 16.2557 93.6117 16.3252 93.056 16.3715C92.9287 16.6609 92.7782 16.9503 92.6393 17.2397L93.0908 17.4017C93.0445 17.5059 92.9519 17.587 92.7319 17.6217V24.6714C92.7203 24.764 92.1878 25.0303 91.7132 25.0303H91.4933V19.0339C91.1344 19.5086 90.7409 19.9253 90.3357 20.3073L90.1968 20.2147C90.984 18.7214 91.8058 16.3599 92.2226 14.1605ZM97.4317 17.9458C97.3854 17.2628 97.3738 16.5451 97.3623 15.7927L97.1076 15.7348C96.8066 15.8158 96.4478 15.8969 96.0542 15.9663V17.9458H97.4317ZM119.333 14.2878L121.128 14.4499C121.093 14.6351 120.977 14.7393 120.688 14.7856L120.665 17.1934H121.602L122.297 16.4757L123.489 17.5175C123.408 17.6217 123.258 17.6911 122.991 17.7259C122.91 22.2173 122.737 23.8264 122.123 24.4399C121.753 24.8335 121.255 24.9955 120.653 24.9955C120.653 24.5672 120.618 24.2662 120.468 24.081C120.306 23.8842 119.982 23.7338 119.553 23.6296L119.565 23.4675C119.935 23.5138 120.514 23.5485 120.746 23.5485C120.931 23.5485 121.035 23.5022 121.139 23.3981C121.51 23.0508 121.649 21.2565 121.718 17.5175H120.653C120.572 20.8051 120.097 23.2939 117.088 25.0071L116.96 24.845C117.655 24.1852 118.141 23.4675 118.488 22.6919H116.231V24.683C116.231 24.7524 115.861 25.0071 115.212 25.0071H114.992V22.6919H112.666L112.573 22.3678H114.992V21.0018H114.182V21.2797C114.182 21.3607 113.823 21.5575 113.256 21.5575H113.059V18.0963L114.309 18.5941H114.992V17.7027C114.842 17.7953 114.46 17.9111 114.124 17.9111H113.927V16.1168H112.712L112.619 15.7927H113.927V14.1836L115.467 14.311C115.444 14.473 115.351 14.5772 115.073 14.6235V15.7927H116.173V14.1836L117.736 14.311C117.724 14.473 117.632 14.5772 117.354 14.6235V15.7927H117.435L118.025 14.9476C118.025 14.9476 118.697 15.5264 119.079 15.9432C119.044 16.0589 118.94 16.1168 118.778 16.1168H117.354V17.5522C117.354 17.6564 116.833 17.8416 116.393 17.8416H116.231V18.5941H117.053L117.609 17.969L118.697 18.7908C118.627 18.8835 118.511 18.9529 118.28 18.9876V21.106C118.28 21.1523 117.886 21.3607 117.296 21.3607H117.088V21.0018H116.231V22.3678H116.926L117.609 21.4649C117.609 21.4649 118.187 21.9279 118.639 22.3215C119.171 20.944 119.31 19.3465 119.333 17.5175H118.303L118.199 17.1934H119.333V14.2878ZM115.073 16.1168V17.1239H116.173V16.1168H115.073ZM114.182 20.6777H114.992V18.9182H114.182V20.6777ZM117.088 20.6777V18.9182H116.231V20.6777H117.088ZM143.319 16.3483C143.272 16.4757 143.168 16.5683 142.867 16.5567C142.543 17.4943 142.115 18.4783 141.536 19.4391C143.735 21.8006 143.006 23.5833 141.814 22.7498C141.513 22.1131 141.142 21.3954 140.691 20.643C139.846 21.7195 138.758 22.6803 137.38 23.3981L137.264 23.2823C138.468 22.3099 139.394 21.025 140.077 19.6822C139.336 18.5941 138.445 17.5175 137.392 16.6493L137.496 16.5335C138.792 17.2049 139.811 17.8879 140.598 18.5593C140.98 17.6101 141.258 16.6609 141.443 15.7927L143.319 16.3483ZM137.033 24.5209C137.033 24.683 136.5 25.0187 135.922 25.0187H135.69V14.392L137.137 14.9824H143.4L144.025 14.2647L145.333 15.2949C145.252 15.376 145.09 15.4801 144.858 15.5264V23.5138C144.858 24.4052 144.615 24.9145 142.96 25.065C142.913 24.6483 142.832 24.3589 142.601 24.1736C142.358 23.9768 142.045 23.8264 141.328 23.7222V23.5601C141.328 23.5601 142.879 23.6643 143.214 23.6643C143.458 23.6643 143.515 23.5601 143.515 23.3865V15.3065H137.033V24.5209ZM164.549 14.3689C164.537 14.5193 164.433 14.6351 164.178 14.6698V16.6609C165 16.0589 165.695 15.4338 166.169 14.855L167.663 15.9895C167.582 16.0937 167.454 16.1515 167.211 16.0705C166.447 16.6609 165.394 17.2512 164.178 17.7606V18.814C164.178 18.9992 164.236 19.0687 164.595 19.0687H165.567C165.903 19.0687 166.216 19.0687 166.366 19.0455C166.517 19.0455 166.586 19.0108 166.667 18.895C166.806 18.6867 167.003 18.1079 167.211 17.4133H167.339L167.373 18.9529C167.755 19.115 167.848 19.2539 167.848 19.4738C167.848 20.041 167.292 20.1568 165.417 20.1568H164.283C163.09 20.1568 162.801 19.9021 162.801 19.0339V18.2699C162.153 18.4783 161.481 18.6519 160.798 18.7908L160.717 18.6519C161.423 18.351 162.129 17.9805 162.801 17.5754V14.2068L164.549 14.3689ZM166.644 20.5851C166.644 20.5851 167.501 21.3028 167.987 21.7774C167.952 21.9048 167.836 21.9626 167.663 21.9626H163.218V24.7293C163.218 24.8219 162.581 25.065 162.025 25.065H161.771V21.9626H157.129L157.036 21.6385H161.771V20.0063L163.6 20.1684C163.576 20.3189 163.495 20.423 163.218 20.4694V21.6385H165.903L166.644 20.5851ZM161.863 14.8087C161.805 14.9361 161.713 15.0055 161.423 15.0055C161.169 15.4454 160.833 15.9084 160.439 16.3715L160.937 16.5567C160.902 16.6609 160.775 16.7419 160.578 16.7766V20.261C160.555 20.3536 159.999 20.6083 159.467 20.6083H159.212V17.6101C158.61 18.131 157.927 18.6056 157.198 18.9645L157.094 18.8603C158.425 17.5638 159.525 15.5496 160.011 14.1258L161.863 14.8087ZM184.899 14.8666C185.142 19.3118 186.23 22.0089 190.189 23.4675L190.178 23.6064C189.472 23.7338 189.032 24.2084 188.87 24.9608C185.964 23.4328 185.096 20.7124 184.807 17.0313C184.587 19.9832 183.742 22.9466 179.412 25.0187L179.285 24.8566C183.522 21.7659 183.406 18.0384 183.418 14.3573L185.316 14.5425C185.293 14.7161 185.2 14.8203 184.899 14.8666ZM210.308 16.1284C210.262 16.2789 210.169 16.3715 209.857 16.3946C209.683 17.2281 209.452 18.1773 209.116 19.1381C210.528 21.6154 209.672 23.2244 208.896 22.3331C208.792 21.8469 208.676 21.2449 208.514 20.6198C207.97 21.7311 207.264 22.7961 206.303 23.6411L206.176 23.5485C207.056 22.2636 207.646 20.5967 208.016 18.9761C207.738 18.1889 207.391 17.4017 206.951 16.7419L207.102 16.6493C207.542 17.066 207.912 17.4712 208.236 17.8648C208.364 17.1355 208.456 16.4178 208.502 15.7811L210.308 16.1284ZM207.333 16.1515C207.299 16.302 207.194 16.3946 206.882 16.4178C206.72 17.2628 206.488 18.2352 206.153 19.2192C207.356 21.1871 206.685 22.5299 205.898 21.789L205.562 20.6893C205.099 21.6732 204.486 22.6109 203.687 23.3633L203.56 23.2707C204.254 22.1363 204.729 20.7009 205.03 19.277C204.659 18.3857 204.196 17.4828 203.594 16.7535L203.722 16.6609C204.347 17.1239 204.856 17.5985 205.261 18.05C205.389 17.2512 205.47 16.4757 205.516 15.7927L207.333 16.1515ZM203.479 24.5325C203.479 24.6946 202.969 25.0187 202.402 25.0187H202.182V14.4036L203.583 14.9824H210.204L210.829 14.2762L212.126 15.2949C212.045 15.3875 211.883 15.4801 211.64 15.5264V23.5022C211.64 24.3936 211.408 24.9145 209.776 25.0534C209.718 24.6483 209.637 24.3589 209.405 24.1736C209.162 23.9768 208.861 23.8264 208.144 23.7222V23.5601C208.144 23.5601 209.683 23.6643 210.019 23.6643C210.262 23.6643 210.32 23.5601 210.32 23.3865V15.3181H203.479V24.5325ZM227.707 17.6217C230.601 18.7793 229.247 20.9208 228.193 19.8906C228.193 19.1381 227.892 18.2931 227.591 17.6796L227.707 17.6217ZM226.804 14.4846C226.804 14.4846 227.533 15.1444 227.938 15.5727C227.915 15.7001 227.788 15.758 227.637 15.758H226.272V18.6288H226.364L226.908 17.7606C226.908 17.7606 227.533 18.3625 227.869 18.7677C227.846 18.895 227.73 18.9529 227.568 18.9529H226.272V21.4186C226.769 21.2218 227.279 21.0018 227.776 20.7819L227.823 20.8977C227.105 21.5575 226.028 22.472 224.547 23.5138C224.512 23.6643 224.419 23.8032 224.28 23.8611L223.597 22.3909C223.922 22.2983 224.408 22.1247 224.987 21.9163V18.9529H223.91L223.817 18.6288H224.987V15.758H223.829L223.736 15.4223H226.167L226.804 14.4846ZM231.874 14.5772C233.75 14.5541 233.969 15.5033 233.576 15.92C233.842 16.14 234.259 16.4757 234.548 16.7419C234.514 16.8692 234.398 16.9271 234.236 16.9271H231.261C231.411 17.9458 231.643 18.7908 231.932 19.4854C232.303 18.8371 232.685 18.0616 232.974 17.4017L234.421 18.4088C234.328 18.513 234.236 18.5362 234.004 18.4899C233.483 18.9066 232.731 19.4391 232.106 19.8674C232.777 21.2334 233.715 22.0205 234.733 22.5646L234.687 22.6803C234.143 22.8193 233.703 23.3286 233.53 24C232.187 22.6456 231.527 21.0597 231.226 17.8648V23.4907C231.226 24.4052 231.029 24.8913 229.513 25.0187C229.478 24.6251 229.42 24.3241 229.247 24.1505C229.061 23.9537 228.818 23.8148 228.239 23.7222V23.5601C228.239 23.5601 229.397 23.6527 229.652 23.6527C229.848 23.6527 229.906 23.5948 229.906 23.4328V21.1639C229.351 21.789 228.621 22.5646 227.672 23.4559C227.672 23.6064 227.58 23.7685 227.464 23.8379L226.468 22.4373C227.07 22.1826 228.459 21.4649 229.906 20.6777V16.9271H227.174L227.082 16.5914H229.906V14.2068L231.631 14.3804C231.608 14.5425 231.527 14.6467 231.226 14.693V16.5914H232.615L232.997 16.0937C232.905 16.0705 232.8 16.0358 232.708 15.9779C232.592 15.5033 232.175 14.9476 231.782 14.6582L231.874 14.5772ZM255.304 18.351C257.955 19.9369 256.658 22.1131 255.663 21.0366C255.732 20.1684 255.478 19.1497 255.165 18.4088L255.304 18.351ZM250.153 18.2584C250.674 19.6822 250.442 20.7472 249.979 21.2449C249.666 21.6038 249.041 21.5922 248.81 21.1755C248.625 20.8051 248.798 20.423 249.134 20.1915C249.504 19.8674 249.991 19.0571 249.991 18.2468L250.153 18.2584ZM249.041 16.6609C249.041 16.6609 249.736 17.2165 250.153 17.6101C250.118 17.7374 250.002 17.7953 249.84 17.7953H248.312V24.5556C248.312 24.7061 247.756 25.0071 247.282 25.0071H247.027V17.7953H245.939L245.846 17.4596H247.027V14.1721L248.682 14.3341C248.659 14.4846 248.578 14.5888 248.312 14.6351V17.4596H248.439L249.041 16.6609ZM253.047 14.3341C253.023 14.5078 252.908 14.6119 252.618 14.6582L252.595 16.684H253.73L254.459 15.9547L255.663 17.0197C255.582 17.1239 255.431 17.2049 255.165 17.2397C255.095 21.9279 254.945 23.7338 254.32 24.382C253.938 24.7872 253.417 24.9724 252.757 24.9724C252.757 24.5209 252.711 24.2084 252.549 24.0232C252.375 23.8148 252.005 23.6527 251.53 23.5485L251.542 23.3865C251.97 23.4328 252.63 23.4675 252.873 23.4675C253.07 23.4675 253.185 23.4328 253.29 23.3286C253.672 22.9582 253.787 20.9324 253.868 17.0197H252.584C252.479 20.3073 251.993 23.0855 248.787 25.0303L248.648 24.8798C250.812 22.7151 251.16 20.0873 251.218 17.0197H249.69L249.585 16.684H251.218V14.1605L253.047 14.3341ZM273.987 14.9824C272.865 16.7188 270.445 18.5362 268.188 19.4507L268.107 19.3118C270.063 18.0963 272.251 15.7232 272.772 14.1026L274.74 14.5888C274.694 14.7393 274.543 14.8087 274.184 14.8435C275.238 16.2326 277.321 17.1123 279.116 17.6564L279.104 17.8185C278.548 17.969 278.166 18.5246 278.062 19.0108C276.326 18.1194 274.728 16.7651 273.987 14.9824ZM275.214 17.448C275.214 17.448 276.002 18.0268 276.476 18.4436C276.453 18.5709 276.326 18.6288 276.164 18.6288H270.792L270.7 18.3047H274.52L275.214 17.448ZM274.821 21.6038C279.208 22.8193 278.398 25.6901 276.962 24.8219C276.8 24.4515 276.58 24.0579 276.314 23.6527C274.867 23.9537 272.783 24.3241 270.283 24.7061C270.19 24.8335 270.086 24.9145 269.971 24.9608L269.392 23.3865C269.392 23.3865 269.681 23.3402 269.82 23.2707C270.758 22.8308 272.066 21.4533 272.598 20.5967H268.801L268.697 20.2726H276.418L277.205 19.2886C277.205 19.2886 278.085 19.9484 278.629 20.4115C278.595 20.5388 278.467 20.5967 278.294 20.5967H272.922L274.358 21.3954C274.3 21.5112 274.161 21.5806 273.918 21.5343C273.189 22.1594 271.834 22.9466 270.63 23.4444C271.95 23.4444 273.964 23.4096 276.106 23.3633C275.654 22.7498 275.145 22.1594 274.705 21.6848L274.821 21.6038Z" fill="#171F23"/>
<defs>
<clipPath id="clip0_8_2098">
<rect width="86" height="86" fill="white"/>
</clipPath>
</defs>
</svg>
