<svg width="44" height="43" viewBox="0 0 44 43" fill="none" xmlns="http://www.w3.org/2000/svg">
<path fill-rule="evenodd" clip-rule="evenodd" d="M17.3053 3.67835C17.8231 2.45181 18.2283 1.24295 18.5288 0.171306C9.92758 1.36186 2.95188 7.63948 0.737169 15.8687C5.14976 14.9138 8.94677 13.0679 12.7779 10.1945C14.655 8.78667 16.1852 6.3319 17.3053 3.67835ZM20.9905 5.23394C21.7743 3.37715 22.3415 1.53337 22.7041 0C30.9131 0.451397 37.8952 5.5069 41.1121 12.628C39.1802 12.1291 37.07 11.8606 34.8742 11.9905C30.3228 12.2597 25.5491 14.2364 21.4142 19.101C17.0519 24.233 17.024 30.6627 18.2487 35.7176C18.8664 38.2673 19.8221 40.5676 20.8055 42.3473C20.9242 42.5622 21.0442 42.7711 21.1651 42.9733C9.44499 42.792 0 33.2347 0 21.4715C0 21.0024 0.0150216 20.5368 0.0446087 20.0752C5.68516 19.113 10.4523 16.9387 15.1779 13.3945C17.8883 11.3617 19.763 8.14167 20.9905 5.23394ZM25.7716 42.5526C35.604 40.5731 43.0088 31.8871 43.0088 21.4715C43.0088 20.0569 42.8722 18.6742 42.6115 17.3359C40.4099 16.4299 37.8063 15.8241 35.1103 15.9835C31.6462 16.1884 27.8889 17.6599 24.4619 21.6916C21.2622 25.456 21.0667 30.3614 22.1362 34.7758C22.6656 36.9608 23.4865 38.9287 24.3065 40.4128C24.7166 41.155 25.1119 41.7497 25.45 42.1773C25.5792 42.3409 25.687 42.4632 25.7716 42.5526Z" fill="#D0F04F"/>
</svg>
